<svg width="102" height="29" viewBox="0 0 102 29" fill="none" xmlns="http://www.w3.org/2000/svg">
<path d="M0.275568 28.1211V1.93927H17.6108V6.5032H5.81108V12.7418H16.4602V17.3058H5.81108V28.1211H0.275568ZM23.3055 28.1211L17.9617 8.48473H23.4717L26.5143 21.6779H26.6933L29.8637 8.48473H35.2714L38.493 21.6012H38.6592L41.6506 8.48473H47.1478L41.8168 28.1211H36.0512L32.6762 15.7717H32.4333L29.0583 28.1211H23.3055ZM48.253 28.1211V8.48473H53.699V28.1211H48.253ZM50.9888 5.95348C50.1791 5.95348 49.4845 5.68501 48.905 5.14808C48.334 4.60263 48.0484 3.95064 48.0484 3.19212C48.0484 2.44212 48.334 1.79865 48.905 1.26172C49.4845 0.716263 50.1791 0.443536 50.9888 0.443536C51.7984 0.443536 52.4888 0.716263 53.0598 1.26172C53.6393 1.79865 53.9291 2.44212 53.9291 3.19212C53.9291 3.95064 53.6393 4.60263 53.0598 5.14808C52.4888 5.68501 51.7984 5.95348 50.9888 5.95348ZM56.1593 28.1211V24.8739L65.7729 12.9719V12.8313H56.4917V8.48473H72.3312V12.0259L63.3056 23.6339V23.7745H72.6636V28.1211H56.1593ZM74.9257 28.1211V24.8739L84.5394 12.9719V12.8313H75.2581V8.48473H91.0976V12.0259L82.072 23.6339V23.7745H91.43V28.1211H74.9257Z" fill="white"/>
<path d="M98.0192 28.5181C97.0114 28.5181 96.1461 28.1618 95.4233 27.4492C94.7107 26.7264 94.3544 25.8612 94.3544 24.8533C94.3544 23.8557 94.7107 23.0006 95.4233 22.288C96.1461 21.5754 97.0114 21.2191 98.0192 21.2191C98.9964 21.2191 99.8516 21.5754 100.585 22.288C101.317 23.0006 101.684 23.8557 101.684 24.8533C101.684 25.5252 101.511 26.1411 101.165 26.701C100.829 27.2507 100.386 27.6935 99.8363 28.0295C99.2866 28.3552 98.6809 28.5181 98.0192 28.5181Z" fill="#FEBC30"/>
</svg>
