<svg width="20" height="20" viewBox="0 0 20 20" fill="none" xmlns="http://www.w3.org/2000/svg">
<path d="M10 0C9.99984 0 10 0 9.99984 0C7.46016 0 5.03879 0.953359 3.18223 2.68434C3.06387 2.79465 3.05738 2.98004 3.1677 3.0984C3.27809 3.2168 3.4634 3.22324 3.58176 3.11289C5.32961 1.48332 7.60898 0.585898 10 0.585938C15.1909 0.585938 19.4141 4.80906 19.4141 10C19.4141 15.1909 15.1909 19.4141 10 19.4141C4.80906 19.4141 0.585938 15.1909 0.585938 10C0.585938 7.85082 1.32902 5.74906 2.67832 4.08191C2.78008 3.95609 2.76066 3.77168 2.63488 3.66984C2.50914 3.56809 2.32469 3.5875 2.22285 3.71324C0.789414 5.48441 0 7.71711 0 10C0 15.527 4.47254 20 10 20C15.527 20 20 15.5275 20 10C20 4.47301 15.5275 0 10 0Z" fill="#010101"/>
<path d="M10.2864 11.8426C9.11 12.2056 8.49199 13.4361 8.84313 14.5739C9.1275 15.4956 9.9661 16.1147 10.9298 16.1147C12.1152 16.1147 13.1153 15.1643 13.1153 13.9305C13.1153 12.4661 11.7027 11.4054 10.2864 11.8426ZM10.9298 15.5288C10.2247 15.5288 9.61113 15.0756 9.40301 14.4012V14.4011C9.14598 13.5683 9.59813 12.6682 10.4591 12.4024C11.4928 12.0834 12.5294 12.8557 12.5294 13.9305C12.5294 14.8354 11.7947 15.5288 10.9298 15.5288Z" fill="#010101"/>
<path d="M10.3194 6.1954L11.38 5.13489C11.4944 5.02048 11.4944 4.83497 11.38 4.7206C11.2656 4.60614 11.0801 4.60618 10.9657 4.72056L9.90515 5.78106C9.79073 5.89548 9.79073 6.08099 9.90515 6.19536C10.0195 6.30981 10.205 6.30981 10.3194 6.1954Z" fill="#010101"/>
<path d="M10.8807 7.17102C10.9952 7.28543 11.1807 7.28539 11.295 7.17102L12.3556 6.11047C12.47 5.99602 12.47 5.81055 12.3556 5.69613C12.2412 5.58176 12.0557 5.58176 11.9413 5.69613L10.8807 6.75668C10.7663 6.87109 10.7663 7.05656 10.8807 7.17102Z" fill="#010101"/>
<path d="M11.8563 8.14758C11.9708 8.26199 12.1562 8.26195 12.2706 8.14758L13.3312 7.08703C13.4456 6.97258 13.4456 6.78711 13.3312 6.6727C13.2167 6.55832 13.0312 6.55832 12.9169 6.6727L11.8563 7.73324C11.7419 7.84769 11.7419 8.03316 11.8563 8.14758Z" fill="#010101"/>
<path d="M12.9606 17.4659C14.0827 16.8524 14.1579 16.3672 15.0898 15.42C15.3174 15.1887 15.4898 14.9171 15.6015 14.6219C16.675 13.3229 17.2659 11.6841 17.2659 10.0003C17.2659 6.53428 14.7969 3.5333 11.3925 2.86924L9.75601 1.2744C9.34019 0.869124 8.63894 1.1642 8.63894 1.74557V2.86334C8.22988 2.94131 7.82738 3.0549 7.43773 3.20221C6.5507 2.80686 5.60015 3.45491 4.93652 4.17002C3.33082 5.90026 2.19961 9.17108 2.39375 11.5244C2.47695 12.5328 2.84843 13.6585 3.84023 13.8473C4.13519 14.318 4.48289 14.7538 4.87722 15.1464C4.78777 15.481 4.78757 15.8444 4.89695 16.1986C5.19652 17.1695 6.07996 17.8219 7.09523 17.8219C7.72699 17.8219 7.8814 17.5929 8.61253 17.5929C9.64414 17.5929 10.0794 18.1738 11.5786 17.9394C11.7385 17.9144 11.8478 17.7645 11.8228 17.6047C11.7978 17.4448 11.6477 17.3353 11.4881 17.3605C10.1222 17.5742 9.79593 17.0069 8.61257 17.0069C7.79257 17.0069 7.61929 17.2359 7.09527 17.2359C6.33863 17.2359 5.68019 16.7496 5.45687 16.0258C5.37105 15.7478 5.38007 15.4547 5.48097 15.183C5.48277 15.1788 5.48492 15.175 5.48656 15.1708C5.63199 14.7943 5.93738 14.51 6.32031 14.3919C6.82621 14.2357 7.10765 13.723 6.99925 13.2281C6.97582 13.1213 6.85605 12.8245 6.92 12.3879C6.99671 11.8759 7.30902 11.3972 7.7991 11.1326C7.79914 11.1326 7.79914 11.1325 7.79917 11.1325C8.0255 11.0104 8.10972 11.0022 9.89367 10.4518C10.2338 10.3469 10.5858 10.2934 10.9394 10.2934C12.0032 10.2934 13.0437 10.7885 13.7166 11.6269C14.194 12.2219 14.539 12.4686 14.6721 12.6038C15.3252 13.2671 15.3308 14.3398 14.6722 15.0092C13.6946 16.0029 13.6837 16.4031 12.6797 16.9518C12.5377 17.0294 12.4855 17.2074 12.5632 17.3494C12.6407 17.4913 12.8186 17.5435 12.9606 17.4659ZM16.2287 7.58225L12.257 3.7117C14.0974 4.36979 15.5364 5.79811 16.2287 7.58225ZM9.22488 3.10948V1.74553C9.22488 1.68299 9.29949 1.6476 9.34707 1.69401L16.4477 8.61389C16.4949 8.6599 16.4621 8.73737 16.3975 8.73737H9.29687C9.25718 8.73737 9.22492 8.7051 9.22492 8.66541L9.22488 3.10948ZM2.97769 11.4761C2.79707 9.28651 3.87183 6.17854 5.36601 4.5685C5.90769 3.98479 6.44261 3.67045 6.87746 3.67045C6.96894 3.67045 7.05605 3.68436 7.13781 3.71264C7.62062 3.87936 7.7941 4.46823 7.5055 4.88436C7.28683 5.19975 7.07851 5.5544 6.89539 5.8976C6.51804 5.76713 6.27171 5.63408 5.93425 5.79811C5.56078 5.97963 5.40543 6.42885 5.58703 6.80233C5.67476 6.98283 5.82757 7.11838 6.01722 7.18393L6.24812 7.26377C6.16562 7.45885 6.08496 7.6585 6.00656 7.8617L5.43304 7.66338C5.04152 7.52803 4.61281 7.73651 4.47746 8.12799C4.41187 8.31768 4.4241 8.52155 4.51183 8.70201C4.59957 8.88252 4.75238 9.01807 4.94203 9.08362L5.51585 9.28205C5.45203 9.49022 5.39183 9.69709 5.33625 9.90139L5.10527 9.82151C4.71382 9.68623 4.28507 9.89463 4.14968 10.2861C4.0841 10.4758 4.09632 10.6797 4.18406 10.8601C4.27179 11.0406 4.4246 11.1762 4.61425 11.2417L5.00168 11.3757C4.92664 11.7988 4.87648 12.1949 4.85539 12.5492V12.5494C4.80125 13.4541 3.18144 13.9461 2.97769 11.4761ZM6.62679 6.42471C6.57902 6.5233 6.5316 6.62373 6.48472 6.72557L6.20871 6.63014C6.00644 6.5603 6.10574 6.24483 6.31683 6.31752L6.62679 6.42471ZM5.80308 8.41127C5.76695 8.51303 5.72918 8.62244 5.69496 8.72393L5.13343 8.52975C5.04687 8.49987 5.00136 8.40561 5.03117 8.3194C5.06086 8.2335 5.15492 8.18725 5.24156 8.21709L5.80308 8.41127ZM5.18984 10.4706C5.16378 10.5797 5.13906 10.688 5.11574 10.7951L4.80574 10.6879C4.71914 10.658 4.67367 10.5637 4.70351 10.4775C4.73324 10.3915 4.82738 10.3454 4.91386 10.3752L5.18984 10.4706ZM14.1734 11.2601C13.4113 10.3104 12.2581 9.73322 11.0186 9.70854C10.5928 9.70033 10.1581 9.75686 9.72078 9.89178C7.80589 10.4826 7.78664 10.4738 7.52136 10.6163C7.52058 10.6167 7.5198 10.6171 7.51906 10.6175C6.91191 10.9447 6.48644 11.5247 6.35699 12.2022C6.35644 12.2051 6.35597 12.208 6.35542 12.2108C6.23386 12.8605 6.42406 13.2893 6.43464 13.403C6.45203 13.5932 6.33375 13.7744 6.14746 13.8318C5.74707 13.9554 5.38578 14.2104 5.13796 14.5751C4.91027 14.3333 4.70093 14.0752 4.51167 13.8029C5.02277 13.6315 5.40621 13.1559 5.44031 12.584C5.56804 10.4411 6.7632 6.98342 7.98707 5.21823C8.31183 4.74987 8.31894 4.11791 7.97273 3.63537C8.1916 3.56553 8.41414 3.50701 8.63898 3.46022C8.63898 9.09987 8.63296 8.70319 8.65238 8.79787C8.71382 9.09737 8.97945 9.32334 9.29691 9.32334C16.9494 9.32334 16.4748 9.34323 16.6411 9.27701C16.6668 9.51502 16.6799 9.75623 16.6799 10.0003C16.6799 11.2171 16.3444 12.4083 15.7215 13.4424C15.5375 12.2931 14.9413 12.217 14.1734 11.2601Z" fill="#010101"/>
</svg>
