<svg width="51" height="50" viewBox="0 0 51 50" fill="none" xmlns="http://www.w3.org/2000/svg">
<path d="M50.4124 34.0523C50.4124 32.1887 49.6986 30.4282 48.4298 29.0722V23.2197C48.4298 17.0262 46.019 11.1975 41.6336 6.80414C37.2403 2.4108 31.4116 1.80815e-05 25.2022 1.80815e-05C12.4029 -0.0158423 1.98255 10.4045 1.98255 23.2117V29.0642C0.721649 30.4124 0 32.1808 0 34.0523C0 37.8747 2.94211 41.0151 6.67724 41.3244C7.05789 42.6804 8.28707 43.6796 9.76209 43.6796C11.5385 43.6796 12.9818 42.2363 12.9818 40.46V27.6447C12.9818 25.8684 11.5385 24.4251 9.76209 24.4251C8.50912 24.4251 7.43854 25.1467 6.89928 26.1935V23.2038C6.89928 13.1166 15.1071 4.90089 25.1943 4.90089C30.0714 4.90089 34.6709 6.80414 38.1364 10.2617C41.594 13.7351 43.4972 18.3267 43.4972 23.2038V26.1856C42.9659 25.1467 41.8874 24.4251 40.6423 24.4251C38.866 24.4251 37.4227 25.8684 37.4227 27.6447V40.46C37.4227 42.2363 38.866 43.6796 40.6423 43.6796C42.1174 43.6796 43.3465 42.6804 43.7272 41.3244C43.8223 41.3164 43.9175 41.3085 44.0127 41.2926V42.1887C44.0127 44.4885 42.1411 46.3521 39.8493 46.3521H30.5392V46.138C30.5392 45.0833 29.6828 44.2347 28.6281 44.2347H22.9818C21.927 44.2347 21.0785 45.0912 21.0785 46.138V48.0888C21.0785 49.1435 21.935 50 22.9818 50H28.6281C29.6828 50 30.5392 49.1435 30.5392 48.0888V47.8826H39.8493C42.9897 47.8826 45.5432 45.3291 45.5432 42.1887V40.9278C48.3743 39.9286 50.4124 37.2244 50.4124 34.0523ZM28.6281 48.4774H22.9818C22.7756 48.4774 22.6011 48.3029 22.6011 48.0968V46.1459C22.6011 45.9397 22.7676 45.7653 22.9818 45.7653H28.6281C28.8422 45.7653 29.0087 45.9318 29.0087 46.1459V47.1134V47.1213V47.1293V48.0968C29.0087 48.3029 28.8422 48.4774 28.6281 48.4774ZM1.53053 34.0523C1.53053 32.2918 2.32355 30.6424 3.70341 29.5321C3.98097 29.318 4.2268 29.1515 4.49643 29.0087C4.52022 29.0008 4.53608 28.9849 4.55987 28.977C4.78985 28.8501 5.02775 28.747 5.27359 28.6519C5.32117 28.636 5.36875 28.6122 5.41633 28.5964C5.69389 28.5012 5.97938 28.4219 6.2728 28.3743H6.28073C6.36796 28.3585 6.45519 28.3426 6.54242 28.3267H6.55828V39.778C3.7272 39.4052 1.53053 36.9786 1.53053 34.0523ZM9.77002 25.9556C10.7058 25.9556 11.4592 26.7169 11.4592 27.6447V40.46C11.4592 41.3957 10.6979 42.1491 9.77002 42.1491C8.88184 42.1491 8.16812 41.4671 8.09675 40.5948V40.5868L8.08088 27.5813C8.12054 26.6772 8.85805 25.9556 9.77002 25.9556ZM39.2228 9.19113C35.4639 5.44807 30.4837 3.38622 25.2022 3.38622C14.2744 3.38622 5.38461 12.2839 5.38461 23.2117V27.0024C5.34496 27.0103 5.31324 27.0262 5.27359 27.042C5.08327 27.0976 4.90087 27.161 4.71848 27.2244C4.63124 27.2562 4.54401 27.2879 4.45678 27.3275C4.25852 27.4148 4.0682 27.5099 3.87787 27.613C3.83822 27.6368 3.79064 27.6527 3.75099 27.6765C3.67169 27.724 3.58446 27.7716 3.51308 27.8113V23.2197C3.51308 11.253 13.2435 1.52262 25.2022 1.52262C30.9992 1.52262 36.4552 3.78273 40.5551 7.88265C44.655 11.9905 46.9072 17.4386 46.9072 23.2197V27.8113C46.8279 27.7637 46.7486 27.7161 46.6693 27.6765C46.6138 27.6447 46.5583 27.6209 46.4948 27.5972C46.3124 27.502 46.13 27.4148 45.9476 27.3355C45.8683 27.3037 45.7811 27.272 45.7018 27.2403C45.5273 27.1689 45.3449 27.1134 45.1626 27.0579C45.115 27.042 45.0753 27.0262 45.0277 27.0103V23.2197C45.0277 17.9302 42.9659 12.9501 39.2228 9.19113ZM40.6503 42.1491C39.7145 42.1491 38.9611 41.3878 38.9611 40.46V27.6447C38.9611 26.709 39.7224 25.9556 40.6503 25.9556C41.5702 25.9556 42.3235 26.701 42.3394 27.613L42.3315 40.571C42.268 41.4512 41.5384 42.1491 40.6503 42.1491ZM43.8699 39.778V28.3267H43.8858C43.9968 28.3426 44.0999 28.3664 44.203 28.3822C44.4726 28.4298 44.7423 28.5012 45.0039 28.5964C45.0436 28.6122 45.0833 28.6281 45.1308 28.6439C45.3767 28.7391 45.6225 28.8422 45.8525 28.977C45.8763 28.9929 45.9001 29.0008 45.9318 29.0167C46.1856 29.1515 46.4314 29.318 46.701 29.5242C48.0888 30.6344 48.8898 32.2839 48.8898 34.0523C48.8898 36.9707 46.7089 39.3973 43.8699 39.778Z" fill="#FEBC30"/>
<path d="M24.0364 34.068C24.3299 34.4169 24.7581 34.6151 25.2101 34.6151C25.6621 34.6151 26.0904 34.4169 26.3838 34.068L28.6835 31.332H33.513C34.7819 31.332 35.8128 30.3011 35.8128 29.0323V18.1044C35.8128 16.8356 34.7819 15.8047 33.513 15.8047H16.9072C15.6384 15.8047 14.6074 16.8356 14.6074 18.1044V29.0402C14.6074 30.309 15.6384 31.34 16.9072 31.34H21.7367L24.0364 34.068ZM16.138 29.0402V18.1044C16.138 17.6762 16.4869 17.3352 16.9072 17.3352H33.513C33.9413 17.3352 34.2823 17.6841 34.2823 18.1044V29.0402C34.2823 29.4684 33.9333 29.8094 33.513 29.8094H28.3267C28.1046 29.8094 27.8905 29.9125 27.7399 30.0791L25.2101 33.0846L22.6804 30.0791C22.5376 29.9046 22.3235 29.8094 22.0935 29.8094H16.9072C16.479 29.8094 16.138 29.4605 16.138 29.0402Z" fill="#FEBC30"/>
<path d="M19.0884 21.1574H31.3327C31.753 21.1574 32.094 20.8164 32.094 20.3961C32.094 19.9758 31.753 19.6348 31.3327 19.6348H19.0884C18.6681 19.6348 18.3271 19.9758 18.3271 20.3961C18.3271 20.8164 18.6681 21.1574 19.0884 21.1574Z" fill="#FEBC30"/>
<path d="M19.0884 24.4484H31.3327C31.753 24.4484 32.094 24.1074 32.094 23.6871C32.094 23.2668 31.753 22.9258 31.3327 22.9258H19.0884C18.6681 22.9258 18.3271 23.2668 18.3271 23.6871C18.3271 24.1074 18.6681 24.4484 19.0884 24.4484Z" fill="#FEBC30"/>
<path d="M25.5199 26.9869C25.5199 26.5666 25.1789 26.2256 24.7586 26.2256H19.0884C18.6681 26.2256 18.3271 26.5666 18.3271 26.9869C18.3271 27.4072 18.6681 27.7482 19.0884 27.7482H24.7586C25.1789 27.7482 25.5199 27.4072 25.5199 26.9869Z" fill="#FEBC30"/>
</svg>
