<svg width="18" height="20" viewBox="0 0 18 20" fill="none" xmlns="http://www.w3.org/2000/svg">
<path d="M10.0154 2.5835C10.0443 2.59003 10.0731 2.59315 10.1015 2.59315C10.2799 2.59315 10.4409 2.46987 10.4817 2.28827L10.859 0.611393C10.9063 0.400924 10.7743 0.191861 10.5641 0.144439C10.3539 0.0969002 10.1452 0.229205 10.0978 0.439674L9.72054 2.11655C9.67324 2.32702 9.80527 2.53608 10.0154 2.5835Z" fill="black"/>
<path d="M8.17625 2.05182C8.25047 2.16944 8.37703 2.23382 8.5064 2.23382C8.57765 2.23382 8.6498 2.21425 8.71445 2.17335C8.89656 2.05807 8.95094 1.81678 8.83582 1.6344L7.91918 0.181978C7.8041 -0.000405442 7.56312 -0.0547414 7.38097 0.0604149C7.19886 0.175688 7.14449 0.416978 7.25961 0.599361L8.17625 2.05182Z" fill="black"/>
<path d="M11.6962 2.95336C11.7675 2.95336 11.8396 2.93379 11.9043 2.89286L13.3559 1.97379C13.538 1.85848 13.5923 1.61719 13.4772 1.43485C13.362 1.25254 13.1211 1.19813 12.939 1.31344L11.4874 2.23246C11.3052 2.34778 11.2509 2.58907 11.3661 2.77141C11.4403 2.88899 11.5668 2.95336 11.6962 2.95336Z" fill="black"/>
<path d="M16.5381 16.9511L14.0675 15.8859L13.2755 12.9251C14.2977 12.5427 15.1659 11.7522 15.6423 10.7516C16.1083 9.77301 16.1396 8.70418 15.7333 7.73144C15.7304 7.72426 15.7064 7.66816 15.6971 7.64738L13.9989 3.84359C13.9207 3.66835 13.7268 3.57601 13.5418 3.6257L9.80905 4.62706L9.86632 4.07374C9.88597 3.88386 9.76569 3.70757 9.58191 3.65687L8.36003 3.31968C8.15233 3.26234 7.93753 3.38448 7.8803 3.59249C7.82307 3.8005 7.94507 4.01558 8.15276 4.07288L9.05616 4.32218L8.8894 5.93339C7.78143 5.42468 6.32682 5.47902 5.32381 6.12359C4.5112 6.64582 3.21956 6.65433 2.34627 6.17953L3.80436 2.91488L4.78936 3.17929C4.99737 3.23519 5.21139 3.11155 5.26717 2.90312C5.32296 2.69472 5.19948 2.48054 4.99139 2.42464L3.68506 2.07394C3.50002 2.02421 3.30616 2.11655 3.22791 2.29175L1.52846 6.09679C1.08494 7.09121 1.10455 8.19316 1.58369 9.19969C2.06022 10.2007 2.92881 10.9917 3.95124 11.3743L3.15924 14.3351L0.688459 15.3994C0.24838 15.5895 -0.0274402 16.0286 0.00216918 16.4922C0.0317005 16.9551 0.361818 17.3324 0.863693 17.4767C0.865959 17.4774 0.868225 17.478 0.87049 17.4786L4.32436 18.4044C4.32639 18.405 4.32846 18.4055 4.33053 18.406C4.44534 18.4348 4.55842 18.4488 4.66772 18.4488C5.04139 18.4488 5.37057 18.2849 5.56936 17.9863C5.82667 17.5997 5.80714 17.0814 5.52065 16.6963L3.91295 14.5375L4.70491 11.5768C4.93358 11.6152 5.16538 11.6344 5.39749 11.6344C6.25831 11.6343 7.12264 11.3738 7.84124 10.8789C7.90432 10.8354 7.96557 10.7904 8.0253 10.744C8.31401 11.4715 8.83683 12.0925 9.54066 12.5314C10.2266 12.9591 11.037 13.1832 11.8378 13.1832C12.0677 13.1832 12.2967 13.1645 12.5218 13.1272L13.3138 16.0881L11.7061 18.247C11.4194 18.632 11.3995 19.1503 11.6564 19.5369C11.8553 19.8361 12.1848 20.0004 12.559 20.0004C12.6678 20.0004 12.7805 19.9865 12.8948 19.9579C12.897 19.9574 12.8992 19.9568 12.9014 19.9562L16.3553 19.0293C16.3575 19.0287 16.3596 19.0281 16.3618 19.0275C16.8646 18.8831 17.1952 18.5055 17.2245 18.042C17.2538 17.5786 16.9778 17.1402 16.5381 16.9511ZM9.72296 5.45902L13.4224 4.4666L14.8797 7.73082C14.0068 8.2057 12.7152 8.19695 11.902 7.67433C11.2628 7.26316 10.3963 7.08211 9.54624 7.16613L9.72296 5.45902ZM4.92018 17.553C4.82401 17.6975 4.63116 17.6756 4.52276 17.6489L1.07604 16.725C0.969123 16.6938 0.791935 16.616 0.780842 16.4425C0.773889 16.3338 0.838732 16.1856 0.99717 16.1171L3.3585 15.0999L4.89506 17.1633C4.99827 17.3019 4.98042 17.4625 4.92018 17.553ZM7.39913 10.2352C6.57628 10.8019 5.47534 10.9951 4.52518 10.7393C4.52514 10.7393 4.52514 10.7393 4.5251 10.7392C4.52506 10.7392 4.52503 10.7392 4.52495 10.7392C4.52491 10.7392 4.52487 10.7392 4.52483 10.7391C3.57491 10.485 2.7178 9.76633 2.28803 8.86351C1.98826 8.23379 1.91596 7.55871 2.07073 6.91718C2.59143 7.18 3.19799 7.3134 3.80264 7.31336C4.49819 7.31332 5.19085 7.13742 5.74526 6.78113C6.583 6.24269 7.92972 6.24988 8.80292 6.76945L8.6612 8.13875C8.57327 8.99066 8.12507 9.73515 7.39913 10.2352ZM9.95316 11.8682C9.29292 11.4564 8.83479 10.8469 8.64667 10.1382C9.08948 9.59297 9.36323 8.93652 9.43729 8.21918L9.46378 7.96328C10.1926 7.85379 10.9451 7.98734 11.4805 8.33176C12.0355 8.68847 12.7284 8.86453 13.4243 8.86453C14.0287 8.86453 14.635 8.73117 15.1553 8.46851C15.3102 9.11031 15.238 9.78551 14.9381 10.4153C14.5084 11.3177 13.6519 12.0359 12.7018 12.2898C12.7018 12.2898 12.7018 12.2898 12.7017 12.2898C12.7017 12.2898 12.7016 12.2898 12.7016 12.2898C12.7015 12.2899 12.7014 12.2899 12.7012 12.29C11.7955 12.5341 10.7682 12.3764 9.95316 11.8682ZM16.1496 18.2756L12.7031 19.2006C12.5947 19.2271 12.4021 19.2487 12.306 19.104C12.2458 19.0135 12.2282 18.8529 12.3316 18.714L13.8682 16.6506L16.2298 17.6689C16.388 17.7369 16.4526 17.8844 16.4458 17.9927C16.4349 18.1664 16.257 18.2443 16.1496 18.2756Z" fill="black"/>
<path d="M6.5309 3.63191C6.74637 3.63191 6.92102 3.45703 6.92102 3.24125C6.92102 3.02551 6.74637 2.85059 6.5309 2.85059H6.52863C6.31316 2.85059 6.13965 3.02547 6.13965 3.24125C6.13969 3.45703 6.31547 3.63191 6.5309 3.63191Z" fill="black"/>
</svg>
