<svg width="38" height="50" viewBox="0 0 38 50" fill="none" xmlns="http://www.w3.org/2000/svg">
<path d="M18.1098 24.8448H16.6088V23.3438H18.1098V24.8448ZM15.1077 24.8448H13.6066V23.3438H15.1077V24.8448ZM12.1056 24.8448H10.6045V23.3438H12.1056V24.8448Z" fill="#FEBC30"/>
<path d="M37.4766 39.0094C37.4766 37.3541 36.1299 36.0073 34.4745 36.0073C33.8562 36.0073 33.281 36.1951 32.803 36.5168C32.3907 35.3504 31.277 34.5124 29.9713 34.5124C29.3545 34.5124 28.7807 34.6994 28.3033 35.0195C27.894 33.8479 26.7776 33.0051 25.4681 33.0051C24.9217 33.0051 24.4088 33.1519 23.967 33.408V28.5082C23.967 26.8528 22.6203 25.5061 20.9649 25.5061C19.3095 25.5061 17.9628 26.8528 17.9628 28.5082V37.5072L16.4664 37.5364C14.8146 37.5406 13.4721 38.8858 13.4721 40.537L13.4661 43.525H2.75195C2.06216 43.525 1.50107 42.964 1.50107 42.2742V8.25H0V42.2742C0 43.7916 1.23448 45.0261 2.75195 45.0261H13.4631L13.4592 46.9929L15.0888 50.0004L16.4086 49.2853L14.961 46.6138L14.9731 40.5387C14.9731 39.711 15.6465 39.0377 16.4742 39.0377L17.9628 39.0086V45.7643H19.4638V38.9794V28.5082C19.4638 27.6805 20.1372 27.0071 20.9649 27.0071C21.7926 27.0071 22.466 27.6805 22.466 28.5082V36.0073V41.2673H23.967V36.0073C23.967 35.1796 24.6404 34.5062 25.4681 34.5062C26.2958 34.5062 26.9692 35.1796 26.9692 36.0073V41.2673H28.4702V37.5147C28.4702 36.687 29.1436 36.0136 29.9713 36.0136C30.799 36.0136 31.4723 36.687 31.4723 37.5147V39.0095V41.2674H32.9734V39.0095C32.9734 38.1819 33.6468 37.5085 34.4745 37.5085C35.3022 37.5085 35.9755 38.1819 35.9755 39.0113L36.0006 49.6448L37.5016 49.6413L37.4766 39.0094Z" fill="#FEBC30"/>
<path d="M1.50107 2.75195C1.50107 2.06216 2.06216 1.50107 2.75195 1.50107H7.30519V3.05217C7.30519 4.56964 8.53966 5.80412 10.0571 5.80412H18.2693C19.7867 5.80412 21.0212 4.56964 21.0212 3.05217V1.50107H25.7684C26.4582 1.50107 27.0193 2.06216 27.0193 2.75195V32.2667H28.5204V2.75195C28.5204 1.23448 27.2858 0 25.7684 0H21.0211H7.30519H2.75195C1.23448 0 0 1.23448 0 2.75195V6.7548H1.50107V2.75195ZM19.5201 1.50107V3.05217C19.5201 3.74196 18.959 4.30306 18.2692 4.30306H10.057C9.36725 4.30306 8.80615 3.74196 8.80615 3.05217V1.50107H19.5201Z" fill="#FEBC30"/>
<path d="M23.7166 20.1753V18.6742H22.6808C22.3213 14.5926 19.0614 11.3327 14.9797 10.9731V10.084H13.4786V10.9731C9.39701 11.3327 6.1371 14.5926 5.77754 18.6742H4.76562V20.1753H5.74242H22.7159H23.7166ZM7.28351 18.6742C7.65898 15.1738 10.6307 12.4391 14.2291 12.4391C17.8276 12.4391 20.7993 15.1738 21.1748 18.6742H7.28351Z" fill="#FEBC30"/>
<path d="M5.2666 28.5137H12.7594V30.0147H5.2666V28.5137Z" fill="#FEBC30"/>
<path d="M5.2666 31.5156H12.7594V33.0167H5.2666V31.5156Z" fill="#FEBC30"/>
<path d="M5.2666 34.5186H12.7594V36.0196H5.2666V34.5186Z" fill="#FEBC30"/>
</svg>
