<svg width="80" height="80" viewBox="0 0 80 80" fill="none" xmlns="http://www.w3.org/2000/svg">
<path d="M76.1213 64H1.33333C0.597333 64 0 64.5973 0 65.3333V70.6667C0 75.8133 4.18667 80 9.33333 80H49.3333C54.48 80 58.6667 75.8133 58.6667 70.6667V66.6667H62.84C63.3947 69.008 65.3613 70.796 67.864 71.024L75.7707 71.7427C75.8867 71.7533 76.004 71.7587 76.12 71.7587C77.0827 71.7587 78.02 71.3987 78.736 70.7453C79.5387 70.0107 80 68.9667 80 67.8787C80 65.74 78.26 64 76.1213 64ZM56 70.6667C56 74.3427 53.0093 77.3333 49.3333 77.3333H9.33333C5.65733 77.3333 2.66667 74.3427 2.66667 70.6667V66.6667H56V70.6667ZM76.9387 68.7747C76.6853 69.0067 76.3587 69.1213 76.012 69.0853L68.1053 68.3667C67 68.2667 66.0867 67.6 65.636 66.6667H76.1213C76.7893 66.6667 77.3333 67.2107 77.3333 67.8787C77.3333 68.224 77.1933 68.5427 76.9387 68.7747Z" fill="#FEBC30"/>
<path d="M12.0007 18.6667C13.0567 18.6667 13.962 18.5067 14.7327 18.2547L13.402 22.244C13.266 22.6507 13.3353 23.0973 13.586 23.4453C13.8367 23.7947 14.2393 24 14.6673 24H28.0007C28.4287 24 28.8313 23.7947 29.082 23.4453C29.3327 23.0973 29.4007 22.6507 29.266 22.244L27.9353 18.2547C28.706 18.5067 29.6113 18.6667 30.6673 18.6667C33.874 18.6667 37.334 15.608 37.334 10.6667C37.334 5.52933 32.3273 0 21.334 0C10.3407 0 5.33398 5.52933 5.33398 10.6667C5.33398 15.608 8.79398 18.6667 12.0007 18.6667ZM21.334 2.66667C31.8807 2.66667 34.6673 7.9 34.6673 10.6667C34.6673 13.9613 32.5913 16 30.6673 16C27.6033 16 26.5607 14.132 26.5273 14.0707C26.214 13.444 25.4713 13.1667 24.8247 13.4347C24.178 13.7027 23.8487 14.424 24.07 15.088L26.1513 21.3333H16.5167L18.5993 15.088C18.818 14.432 18.4927 13.7267 17.858 13.452C17.2233 13.176 16.478 13.444 16.15 14.052C16.1073 14.132 15.0647 16 12.0007 16C10.0767 16 8.00065 13.9613 8.00065 10.6667C8.00065 7.9 10.7873 2.66667 21.334 2.66667Z" fill="#FEBC30"/>
<path d="M40.7813 37.465L35.124 43.1237C33.1093 45.1384 32 47.817 32 50.6664C32 53.5157 33.1093 56.1944 35.124 58.209C37.1387 60.2237 39.8173 61.333 42.6667 61.333C45.516 61.333 48.1947 60.2237 50.2093 58.209L63.408 45.0104C68.6067 39.8117 68.6067 31.353 63.408 26.1544C58.2093 20.9557 49.7493 20.957 44.552 26.1544C41.572 29.133 40.1907 33.3157 40.7813 37.465ZM43.52 37.6637C42.8267 34.1584 43.9173 30.5597 46.4373 28.0397C50.5973 23.881 57.3627 23.881 61.5227 28.0397C65.6813 32.1984 65.6813 38.9664 61.5227 43.125L48.324 56.3237C46.812 57.8344 44.804 58.6664 42.6667 58.6664C40.5293 58.6664 38.5213 57.8344 37.0093 56.3237C35.4973 54.813 34.6667 52.8037 34.6667 50.6664C34.6667 48.529 35.4987 46.521 37.0093 45.009L43.1533 38.8637C43.4693 38.5504 43.6067 38.0997 43.52 37.6637Z" fill="#FEBC30"/>
<path d="M54.9225 36.754C55.9905 36.754 56.9958 36.338 57.7505 35.5833C58.5065 34.8273 58.9225 33.8233 58.9225 32.754C58.9225 31.6846 58.5065 30.6806 57.7518 29.926C56.2412 28.4153 53.6065 28.4153 52.0958 29.926C51.3398 30.682 50.9238 31.686 50.9238 32.7553C50.9238 33.8246 51.3398 34.8286 52.0945 35.5833C52.8505 36.338 53.8545 36.754 54.9225 36.754ZM53.9812 31.8113C54.2318 31.5593 54.5665 31.4206 54.9238 31.4206C55.2812 31.4206 55.6145 31.5593 55.8665 31.8113C56.1185 32.062 56.2572 32.3966 56.2572 32.754C56.2572 33.1113 56.1185 33.4446 55.8665 33.6966C55.3638 34.2006 54.4852 34.2006 53.9812 33.6966C53.7292 33.446 53.5905 33.1113 53.5905 32.754C53.5905 32.3966 53.7278 32.0633 53.9812 31.8113Z" fill="#FEBC30"/>
<path d="M58.6673 2.66667V0C51.3153 0 45.334 5.98133 45.334 13.3333H48.0007C48.0007 7.452 52.786 2.66667 58.6673 2.66667Z" fill="#222222"/>
<path d="M6.66732 28H9.33398C9.33398 23.588 5.74598 20 1.33398 20V22.6667C4.27532 22.6667 6.66732 25.0587 6.66732 28Z" fill="#222222"/>
<path d="M32 32.0003H34.6667C34.6667 28.3243 37.6573 25.3337 41.3333 25.3337V22.667C36.1867 22.667 32 26.8537 32 32.0003Z" fill="#222222"/>
<path d="M61.334 0H64.0007V2.66667H61.334V0Z" fill="#222222"/>
<path d="M53.334 58.666H56.0007V61.3327H53.334V58.666Z" fill="#222222"/>
<path d="M1.95181 55.8374C3.21048 57.0974 4.88515 57.7907 6.66648 57.7907C8.44781 57.7907 10.1211 57.0974 11.3811 55.8374C11.6518 55.5667 11.8985 55.2627 12.1305 54.9187C13.4278 54.7747 14.6265 54.2401 15.6291 53.4041L20.7225 59.5201C20.9625 59.8081 21.3118 59.9814 21.6865 59.9987C21.7065 60.0001 21.7265 60.0001 21.7465 60.0001C22.0998 60.0001 22.4385 59.8601 22.6891 59.6094L30.2358 52.0627C30.5011 51.7974 30.6425 51.4334 30.6251 51.0601C30.6078 50.6854 30.4345 50.3361 30.1478 50.0961L24.0358 44.9961C24.8691 43.9934 25.4038 42.7961 25.5451 41.5027C25.8905 41.2721 26.1945 41.0241 26.4651 40.7534C29.0651 38.1547 29.0651 33.9241 26.4651 31.3254C25.2065 30.0654 23.5318 29.3721 21.7505 29.3721C20.3851 29.3721 19.0811 29.7801 17.9798 30.5387C16.8785 29.7801 15.5745 29.3721 14.2078 29.3721C12.4278 29.3721 10.7531 30.0654 9.49448 31.3241C9.22515 31.5934 8.97715 31.8974 8.74515 32.2441C7.24648 32.4094 5.85981 33.0721 4.77981 34.1534C3.69848 35.2347 3.03581 36.6214 2.87048 38.1187C2.52381 38.3494 2.21981 38.5974 1.95048 38.8681C-0.354852 41.1721 -0.614852 44.7574 1.16648 47.3534C-0.613519 49.9481 -0.352186 53.5334 1.95181 55.8374ZM21.8358 56.6921L17.3265 51.2761C17.9171 50.0801 18.1491 48.7187 17.9598 47.3734L17.9998 47.3334C19.3505 47.5241 20.7145 47.2894 21.9118 46.6961L27.3198 51.2094L21.8358 56.6921ZM3.83715 46.4107C2.27848 44.8507 2.27848 42.3134 3.83715 40.7534C4.08248 40.5081 4.38648 40.2921 4.79315 40.0747C5.22915 39.8414 5.50115 39.3854 5.49715 38.8907C5.49181 37.8121 5.90648 36.8001 6.66648 36.0387C7.42115 35.2854 8.42381 34.8707 9.49581 34.8707H9.52648C10.0185 34.8707 10.4705 34.6001 10.7025 34.1667C10.9198 33.7601 11.1358 33.4574 11.3811 33.2121C12.8931 31.7001 15.5265 31.7001 17.0385 33.2121C17.5385 33.7121 18.4238 33.7121 18.9238 33.2121C20.4358 31.7001 23.0691 31.7001 24.5812 33.2121C26.1398 34.7721 26.1398 37.3094 24.5812 38.8694C24.3345 39.1161 24.0318 39.3307 23.6278 39.5467C23.1905 39.7801 22.9185 40.2361 22.9211 40.7321C22.9278 41.8121 22.5131 42.8241 21.7531 43.5841C20.7451 44.5907 19.3011 44.9681 17.9025 44.6001C17.4411 44.4787 16.9545 44.6107 16.6198 44.9454L15.5731 45.9907C15.2371 46.3267 15.1051 46.8161 15.2265 47.2747C15.5971 48.6787 15.2171 50.1174 14.2105 51.1254C13.4558 51.8787 12.4531 52.2934 11.3811 52.2934C11.3705 52.2934 11.3598 52.2921 11.3505 52.2934C10.8585 52.2934 10.4065 52.5641 10.1745 52.9987C9.95848 53.4027 9.74381 53.7067 9.49715 53.9521C7.93715 55.5121 5.39981 55.5121 3.83981 53.9521C2.28115 52.3921 2.28115 49.8547 3.83981 48.2947C4.35848 47.7747 4.35848 46.9307 3.83715 46.4107Z" fill="#FEBC30"/>
</svg>
