<svg width="81" height="81" viewBox="0 0 81 81" fill="none" xmlns="http://www.w3.org/2000/svg">
<path d="M21.2557 53.319C21.6985 53.7617 21.6985 54.4795 21.2557 54.9222L14.1912 61.9867C13.9784 62.1993 13.69 62.3187 13.3896 62.3187C13.3833 62.3187 13.3768 62.3187 13.3705 62.3185C13.0633 62.3133 12.7712 62.1836 12.5614 61.959L9.40014 58.5763C8.97261 58.119 8.9969 57.4016 9.45439 56.9741C9.91156 56.5465 10.6291 56.5706 11.0567 57.0283L13.4173 59.5543L19.6525 53.3188C20.0952 52.8765 20.8131 52.8766 21.2557 53.319ZM66.083 29.1363C66.083 28.409 66.6725 27.8193 67.3998 27.8193C68.1271 27.8193 68.7167 28.409 68.7167 29.1363C68.7167 29.8636 68.1271 30.4532 67.3998 30.4532C66.6725 30.4532 66.083 29.8636 66.083 29.1363ZM62.8647 33.9606C62.8647 33.2333 63.4543 32.6436 64.1815 32.6436C64.9087 32.6436 65.4984 33.2333 65.4984 33.9606C65.4984 34.6879 64.9087 35.2773 64.1815 35.2773C63.4543 35.2773 62.8647 34.6879 62.8647 33.9606ZM69.3011 33.9606C69.3011 33.2333 69.8906 32.6436 70.6179 32.6436C71.3452 32.6436 71.9348 33.2333 71.9348 33.9606C71.9348 34.6879 71.3452 35.2773 70.6179 35.2773C69.8906 35.2773 69.3011 34.6879 69.3011 33.9606ZM49.9918 33.9606C49.9918 33.2333 50.5813 32.6436 51.3087 32.6436C52.036 32.6436 52.6256 33.2333 52.6256 33.9606C52.6256 34.6879 52.036 35.2773 51.3087 35.2773C50.5813 35.2773 49.9918 34.6879 49.9918 33.9606ZM53.2101 29.1363C53.2101 28.409 53.7997 27.8193 54.527 27.8193C55.2543 27.8193 55.844 28.409 55.844 29.1363C55.844 29.8636 55.2543 30.4532 54.527 30.4532C53.7997 30.4532 53.2101 29.8636 53.2101 29.1363ZM56.4282 33.9606C56.4282 33.2333 57.0177 32.6436 57.7452 32.6436C58.4725 32.6436 59.0619 33.2333 59.0619 33.9606C59.0619 34.6879 58.4723 35.2773 57.7452 35.2773C57.0177 35.2773 56.4282 34.6879 56.4282 33.9606ZM59.6465 29.1363C59.6465 28.409 60.236 27.8193 60.9635 27.8193C61.6908 27.8193 62.2804 28.409 62.2804 29.1363C62.2804 29.8636 61.6908 30.4532 60.9635 30.4532C60.236 30.4532 59.6465 29.8636 59.6465 29.1363Z" fill="#222222"/>
<path d="M80.5343 38.9359V34.0107C80.5343 27.9542 75.6069 23.0268 69.5504 23.0268H52.3772C50.7155 23.0268 49.1398 23.3997 47.7265 24.063L47.865 21.9095H50.328C50.954 21.9095 51.4616 21.402 51.4616 20.7759V17.0676C51.4616 14.3978 49.2894 12.2256 46.6196 12.2256H34.9406V1.80939C34.9406 1.18331 34.433 0.675781 33.807 0.675781H29.2439C28.6178 0.675781 28.1103 1.18331 28.1103 1.80939V12.2256H16.4311C13.7613 12.2256 11.5893 14.3978 11.5893 17.0676V20.7759C11.5893 21.402 12.0968 21.9095 12.7229 21.9095H15.1859L16.4851 42.1118C16.286 42.1042 16.086 42.099 15.8848 42.099C7.42051 42.099 0.53418 48.9854 0.53418 57.4497C0.53418 61.4905 2.10439 65.1708 4.66552 67.9149L0.824707 74.5676C0.601872 74.9535 0.62584 75.4343 0.885921 75.7961C1.14616 76.1579 1.5941 76.3344 2.0307 76.2455L6.81176 75.2803L8.36675 79.9036C8.50877 80.326 8.88513 80.6259 9.32853 80.6701C9.36626 80.6738 9.404 80.6758 9.44157 80.6758C9.84351 80.6758 10.2192 80.462 10.4229 80.109L14.6704 72.7524C15.0712 72.7839 15.4762 72.8003 15.885 72.8003C16.2937 72.8003 16.6987 72.7838 17.0996 72.7524L21.347 80.109C21.5507 80.462 21.9265 80.6758 22.3284 80.6758C22.3658 80.6758 22.4035 80.6738 22.4414 80.6701C22.8848 80.6259 23.2612 80.326 23.4032 79.9036L24.9582 75.2803L29.7393 76.2455C30.1765 76.3342 30.6241 76.1579 30.884 75.7961C31.1441 75.4342 31.1681 74.9535 30.9453 74.5676L27.1044 67.9149C27.7036 67.273 28.2486 66.5797 28.7318 65.8426H41.6045C42.2421 68.0231 44.2585 69.621 46.6421 69.621H75.2856C78.1798 69.621 80.5345 67.2664 80.5345 64.3721V58.637C80.5345 58.011 80.027 57.5034 79.4009 57.5034H79.1965C80.0325 56.4646 80.5345 55.146 80.5345 53.7118C80.5345 51.6848 79.5339 49.8871 78.0007 48.7866C79.5339 47.6861 80.5345 45.8885 80.5345 43.8613C80.5345 42.4271 80.0326 41.1086 79.1965 40.0697H79.4007C80.0268 40.0695 80.5343 39.562 80.5343 38.9359ZM69.5504 25.294C74.3568 25.294 78.2671 29.2043 78.2671 34.0107V37.8023H43.6604V34.0107C43.6604 29.2043 47.5707 25.294 52.3772 25.294H69.5504ZM57.2567 40.0695L53.7228 43.6035L50.1889 40.0695H57.2567ZM30.3776 2.94299H32.6735V12.2256H30.3776V2.94299ZM13.8565 17.0676C13.8565 15.6478 15.0115 14.4928 16.4311 14.4928H46.6196C48.0394 14.4928 49.1944 15.6478 49.1944 17.0676V19.6423H13.8565V17.0676ZM9.71509 76.8006L8.64205 73.61C8.45986 73.0685 7.90343 72.7473 7.34326 72.8602L4.04382 73.5261L6.37387 69.4903C8.08399 70.844 10.088 71.8411 12.2732 72.3702L9.71509 76.8006ZM2.80139 57.4497C2.80139 50.2354 8.67072 44.3662 15.885 44.3662C23.0992 44.3662 28.9686 50.2354 28.9686 57.4497C28.9686 64.6639 23.0992 70.5332 15.885 70.5332C8.67072 70.5332 2.80139 64.6639 2.80139 57.4497ZM24.4265 72.8602C23.8664 72.746 23.3098 73.0685 23.1277 73.61L22.0547 76.8006L19.4968 72.3702C21.6819 71.8413 23.686 70.844 25.3961 69.4903L27.7261 73.5261L24.4265 72.8602ZM18.7739 42.3729L17.4578 21.9095H45.5932L45.3578 25.5699C42.937 27.5864 41.3932 30.6214 41.3932 34.0109V38.9361C41.3932 39.5622 41.9007 40.0697 42.5268 40.0697H42.7312C41.8951 41.1086 41.3932 42.4271 41.3932 43.8615C41.3932 45.8885 42.3937 47.6862 43.927 48.7866C42.3937 49.8871 41.3932 51.6848 41.3932 53.7117C41.3932 55.1459 41.8952 56.4646 42.7312 57.5034H42.5268C41.9007 57.5034 41.3932 58.011 41.3932 58.637V63.5753H29.959C30.7794 61.6978 31.2356 59.6262 31.2356 57.4498C31.2356 49.9727 25.8618 43.7282 18.7739 42.3729ZM78.2671 64.3719C78.2671 66.016 76.9296 67.3536 75.2854 67.3536H46.642C44.9979 67.3536 43.6604 66.016 43.6604 64.3719V59.7705H78.2671V64.3719ZM78.2671 53.7117C78.2671 55.8024 76.5662 57.5033 74.4755 57.5033H47.452C45.3613 57.5033 43.6604 55.8022 43.6604 53.7115C43.6604 51.621 45.3613 49.9201 47.452 49.9201H54.2235L60.1622 55.8586C60.3835 56.0799 60.6736 56.1907 60.9638 56.1907C61.254 56.1907 61.544 56.0799 61.7654 55.8586L67.7039 49.9201H74.4755C76.5662 49.9201 78.2671 51.621 78.2671 53.7117ZM57.4298 49.9201H64.4977L60.9638 53.4539L57.4298 49.9201ZM78.2671 43.8611C78.2671 45.952 76.5662 47.6529 74.4755 47.6529H47.452C45.3613 47.6529 43.6604 45.952 43.6604 43.8613C43.6604 41.9204 45.1265 40.3165 47.0093 40.0963L52.9212 46.008C53.1426 46.2294 53.4326 46.3402 53.7228 46.3402C54.013 46.3402 54.303 46.2294 54.5244 46.008L60.4631 40.0695H74.4757C76.5662 40.0695 78.2671 41.7704 78.2671 43.8611ZM15.8848 46.2631C9.71655 46.2631 4.69824 51.2814 4.69824 57.4497C4.69824 63.6179 9.71655 68.6362 15.8848 68.6362C22.0531 68.6362 27.0716 63.6179 27.0716 57.4497C27.0716 51.2814 22.0531 46.2631 15.8848 46.2631ZM15.8848 66.369C10.9666 66.369 6.96545 62.3679 6.96545 57.4497C6.96545 52.5314 10.9666 48.5303 15.8848 48.5303C20.803 48.5303 24.8044 52.5314 24.8044 57.4497C24.8044 62.3679 20.803 66.369 15.8848 66.369Z" fill="#FEBC30"/>
</svg>
