<svg width="94" height="81" viewBox="0 0 94 81" fill="none" xmlns="http://www.w3.org/2000/svg">
<path d="M81.4978 56.6623H81.0002L75.5557 43.9635C76.4788 44.368 77.4737 44.5834 78.4815 44.5969C78.8815 44.5969 79.2651 44.438 79.548 44.1552C79.8308 43.8723 79.9897 43.4887 79.9897 43.0887V31.0234C79.9897 30.6234 79.8308 30.2398 79.548 29.957C79.2651 29.6741 78.8815 29.5152 78.4815 29.5152C76.9109 29.5237 75.3822 30.0224 74.1087 30.9417C72.8353 31.861 71.8806 33.155 71.378 34.643C70.9342 34.0234 70.3679 33.5015 69.7141 33.1098C69.0604 32.7181 68.3331 32.4648 67.5774 32.3657C66.6195 32.2419 65.6467 32.3033 64.7119 32.5466H63.3998C60.851 32.5466 59.7199 31.0385 57.9402 28.5802L57.0504 27.3284C57.9631 27.2818 58.8474 26.9957 59.6143 26.4989C60.1963 26.0765 60.689 25.5433 61.0643 24.9299C61.4396 24.3165 61.69 23.635 61.8012 22.9245C62.2913 22.6421 62.72 22.2644 63.0619 21.8137C63.4038 21.363 63.6521 20.8484 63.7919 20.3003C63.8557 19.868 63.8135 19.4266 63.669 19.0142C63.5245 18.6017 63.282 18.2305 62.9624 17.9325C62.3466 16.8781 62.0092 15.6844 61.9821 14.4637C62.3715 14.4404 62.7367 14.2671 63.001 13.9803C63.2654 13.6934 63.4083 13.3153 63.3998 12.9254C63.4062 11.3253 63.0918 9.74023 62.4753 8.26372C61.8588 6.78721 60.9527 5.44922 59.8104 4.32879C58.6894 3.2078 57.3586 2.31858 55.8939 1.7119C54.4293 1.10522 52.8595 0.792969 51.2741 0.792969C48.0724 0.792969 45.0019 2.06484 42.7379 4.32879C40.474 6.59275 39.2021 9.66332 39.2021 12.865C39.2021 14.4504 39.5143 16.0202 40.121 17.4848C40.7277 18.9495 41.6169 20.2803 42.7379 21.4013C43.0716 21.7329 43.4241 22.0451 43.7936 22.3363C37.9721 23.754 34.9105 29.2136 33.342 33.9492C32.8957 33.4995 32.3647 33.1427 31.7796 32.8993C31.1946 32.656 30.5672 32.531 29.9335 32.5316H28.0031C30.5684 30.1139 32.297 26.942 32.9382 23.4758C33.5793 20.0096 33.0997 16.4292 31.5689 13.2539C30.0382 10.0786 27.5357 7.47348 24.4246 5.81622C21.3134 4.15897 17.7552 3.53578 14.266 4.03702C10.7768 4.53827 7.53797 6.13789 5.01914 8.60392C2.50031 11.0699 0.832442 14.2742 0.257403 17.752C-0.317636 21.2298 0.230044 24.8004 1.82102 27.9459C3.412 31.0915 5.96357 33.6486 9.10573 35.2463C9.09565 35.3466 9.09565 35.4476 9.10573 35.5479V48.8349C9.10573 50.1108 9.61261 51.3345 10.5149 52.2368C11.4171 53.139 12.6408 53.6459 13.9168 53.6459H21.4576C20.7491 54.3282 20.1444 55.1107 19.6629 55.9685C17.6489 59.9181 16.6144 64.2942 16.6466 68.7276C16.6466 69.1276 16.8055 69.5112 17.0883 69.7941C17.3711 70.0769 17.7548 70.2358 18.1547 70.2358H22.7848C23.1708 73.1343 24.5962 75.794 26.7961 77.7203C28.996 79.6466 31.8205 80.7085 34.7446 80.7085C37.6687 80.7085 40.4932 79.6466 42.6931 77.7203C44.893 75.794 46.3184 73.1343 46.7044 70.2358H69.5381C69.8284 72.54 70.7775 74.7114 72.2716 76.4895C73.7656 78.2675 75.7411 79.5766 77.9608 80.2595C80.1805 80.9424 82.5502 80.9702 84.7853 80.3395C87.0205 79.7089 89.0261 78.4465 90.5614 76.704C92.0968 74.9615 93.0966 72.8129 93.4408 70.5161C93.7851 68.2194 93.4592 65.8721 92.5022 63.756C91.5453 61.6399 89.9979 59.845 88.0459 58.5867C86.0939 57.3284 83.8203 56.6602 81.4978 56.6623ZM76.9733 32.7879V41.3242C76.0896 41.0133 75.3241 40.4357 74.7826 39.6712C74.2411 38.9067 73.9503 37.9929 73.9503 37.0561C73.9503 36.1192 74.2411 35.2054 74.7826 34.4409C75.3241 33.6764 76.0896 33.0988 76.9733 32.7879ZM67.1401 35.3368C67.7313 35.4253 68.2806 35.6946 68.7127 36.1077C69.1447 36.5209 69.4383 37.0576 69.5532 37.6442L69.9453 38.5642C67.8455 39.6437 65.5027 40.1631 63.1434 40.0724C62.9357 39.1765 63.0445 38.2363 63.4514 37.4115C63.8583 36.5867 64.5382 35.9282 65.3755 35.5479C65.9443 35.3634 66.5447 35.2967 67.1401 35.3518V35.3368ZM59.7048 20.617C59.4538 20.7435 59.2431 20.9376 59.0965 21.1774C58.95 21.4173 58.8734 21.6933 58.8753 21.9744C58.8642 22.354 58.7739 22.7272 58.6103 23.07C58.4467 23.4128 58.2133 23.7177 57.9252 23.9652C57.0655 24.5383 55.4668 24.4025 53.4007 23.5881C53.2904 23.5759 53.1791 23.5759 53.0689 23.5881L52.8426 23.3921V17.6158C52.8426 16.7718 53.1779 15.9624 53.7747 15.3656C54.3715 14.7688 55.1809 14.4335 56.0249 14.4335H58.8753C58.9228 16.3858 59.5357 18.2824 60.6399 19.8931C60.367 20.185 60.0518 20.4341 59.7048 20.6321V20.617ZM42.2855 12.7896C42.3609 10.4496 43.3242 8.22604 44.9797 6.57055C46.6352 4.91505 48.8587 3.95176 51.1987 3.87634H51.3345C53.4739 3.87495 55.5447 4.63165 57.1792 6.01215C58.8137 7.39265 59.9062 9.30763 60.2628 11.4172H56.0249C54.3821 11.4212 52.8078 12.0755 51.6462 13.2371C50.4846 14.3987 49.8303 15.973 49.8263 17.6158V21.8537C47.6961 21.4939 45.765 20.3838 44.3819 18.7242C42.9989 17.0645 42.2553 14.9649 42.2855 12.8047V12.7896ZM46.81 24.9907C51.7417 24.9907 53.5515 27.5697 55.4669 30.2844C56.8544 32.2752 58.4832 34.4469 61.1979 35.2161C60.3439 36.5959 59.9578 38.2144 60.0969 39.8311C58.225 39.4222 56.4595 38.6258 54.914 37.4933C53.3685 36.3608 52.0772 34.9172 51.1233 33.2555C51.0412 33.0561 50.9172 32.8767 50.7598 32.7294C50.6025 32.582 50.4153 32.4701 50.211 32.4012C50.0067 32.3323 49.79 32.3079 49.5755 32.3299C49.361 32.3518 49.1537 32.4195 48.9676 32.5283C48.7815 32.6372 48.6209 32.7847 48.4966 32.9608C48.3723 33.137 48.2872 33.3378 48.2471 33.5496C48.207 33.7615 48.2128 33.9795 48.2641 34.1889C48.3153 34.3983 48.4109 34.5943 48.5444 34.7636C49.0911 35.6811 49.7168 36.5491 50.4145 37.3577L50.2787 37.4482C48.8729 39.0653 47.8839 41.0018 47.3981 43.0887H34.7446V41.5806C34.8502 40.6606 36.5695 24.9907 46.81 24.9907ZM55.859 61.1868H49.8263V58.1704C49.8644 57.1699 49.6954 56.1723 49.33 55.2402C48.9645 54.308 48.4104 53.4614 47.7024 52.7535C46.9944 52.0455 46.1478 51.4914 45.2157 51.1259C44.2836 50.7604 43.286 50.5915 42.2855 50.6296H34.3977C34.6281 50.0593 34.7459 49.4499 34.7446 48.8349V46.1051H48.3181C48.6198 46.1051 55.859 46.1956 55.859 53.6459V61.1868ZM19.6629 36.7695C21.2364 36.4894 22.7606 35.9813 24.1874 35.2613V38.5642H19.6629V37.0561C19.672 36.9608 19.672 36.8648 19.6629 36.7695ZM3.07305 20.4662C3.07305 17.7816 3.86913 15.1573 5.36061 12.9252C6.85208 10.693 8.97198 8.95325 11.4522 7.9259C13.9325 6.89856 16.6616 6.62976 19.2946 7.15349C21.9276 7.67723 24.3462 8.96998 26.2445 10.8683C28.1428 12.7666 29.4356 15.1851 29.9593 17.8181C30.483 20.4511 30.2142 23.1803 29.1869 25.6606C28.1595 28.1408 26.4198 30.2607 24.1876 31.7522C21.9555 33.2437 19.3312 34.0397 16.6466 34.0397C13.0467 34.0397 9.59418 32.6097 7.04865 30.0641C4.50312 27.5186 3.07305 24.0661 3.07305 20.4662ZM13.9168 50.6296C13.4408 50.6296 12.9843 50.4405 12.6477 50.1039C12.3112 49.7674 12.1221 49.3109 12.1221 48.8349V36.4076C13.5931 36.8314 15.1157 37.0497 16.6466 37.0561V40.0724C16.6466 40.4724 16.8055 40.856 17.0883 41.1388C17.3711 41.4217 17.7548 41.5806 18.1547 41.5806H25.6956C26.0956 41.5806 26.4792 41.4217 26.762 41.1388C27.0449 40.856 27.2038 40.4724 27.2038 40.0724V35.5479H29.9335C30.1692 35.5479 30.4026 35.5943 30.6204 35.6845C30.8381 35.7747 31.036 35.9069 31.2026 36.0736C31.3693 36.2402 31.5015 36.4381 31.5917 36.6558C31.6818 36.8736 31.7283 37.1069 31.7283 37.3426V48.8499C31.7243 49.3233 31.5335 49.7759 31.1973 50.1093C30.8612 50.4426 30.4069 50.6296 29.9335 50.6296H13.9168ZM34.7446 77.7766C32.6077 77.7745 30.5405 77.0161 28.9092 75.636C27.2778 74.2558 26.1875 72.3428 25.8313 70.2358H28.9231C29.2704 71.5138 30.0286 72.6419 31.0807 73.4463C32.1327 74.2506 33.4203 74.6864 34.7446 74.6864C36.0689 74.6864 37.3565 74.2506 38.4086 73.4463C39.4607 72.6419 40.2188 71.5138 40.5661 70.2358H43.6579C43.3017 72.3428 42.2114 74.2558 40.5801 75.636C38.9487 77.0161 36.8815 77.7745 34.7446 77.7766ZM32.1506 70.2358H37.3387C37.0716 70.6859 36.692 71.0588 36.2372 71.3177C35.7824 71.5767 35.268 71.7129 34.7446 71.7129C34.2212 71.7129 33.7069 71.5767 33.252 71.3177C32.7972 71.0588 32.4176 70.6859 32.1506 70.2358ZM19.6629 67.2195C19.8553 63.7481 20.7914 60.3587 22.4078 57.2806C23.0081 56.1644 23.9039 55.2349 24.9972 54.5938C26.0905 53.9527 27.3391 53.6248 28.6064 53.6459H42.2855C42.8882 53.6133 43.4911 53.7079 44.0548 53.9238C44.6185 54.1396 45.1305 54.4717 45.5573 54.8986C45.9841 55.3254 46.3163 55.8374 46.5321 56.4011C46.7479 56.9648 46.8426 57.5677 46.81 58.1704V62.6949C46.81 64.3266 47.3392 65.9142 48.3181 67.2195H19.6629ZM54.3508 67.2195C53.4173 67.2168 52.5075 66.9255 51.7461 66.3855C50.9847 65.8455 50.4089 65.0832 50.0978 64.2031H57.3671C57.7609 64.1778 58.1555 64.2349 58.5259 64.3708C58.8963 64.5067 59.2343 64.7184 59.5182 64.9923C59.8021 65.2663 60.0257 65.5965 60.1747 65.9618C60.3237 66.3271 60.3948 66.7195 60.3835 67.1139C59.8835 67.1806 59.3797 67.2158 58.8753 67.2195H54.3508ZM64.0182 65.4549C63.8002 65.7014 63.5519 65.9193 63.2792 66.1034C63.1136 64.9632 62.6028 63.901 61.8155 63.0598C61.0281 62.2185 60.0021 61.6386 58.8753 61.3979V53.6459C59.0114 51.1851 58.224 48.7621 56.6675 46.8513C55.1109 44.9405 52.8972 43.6794 50.4597 43.315C50.8463 41.9623 51.5088 40.7042 52.4053 39.62C52.4443 39.5672 52.4795 39.5117 52.5108 39.4541C54.8518 41.3529 57.6686 42.5735 60.655 42.9832L64.908 61.4733C65.1468 62.8659 64.8271 64.2965 64.0182 65.4549ZM67.9243 60.855L63.7769 43.0887C66.3288 43.1123 68.8504 42.5335 71.1367 41.3996L78.2553 57.9895L71.6797 67.2195H66.4162C67.0781 66.3122 67.5524 65.282 67.8114 64.1891C68.0703 63.0963 68.1087 61.9628 67.9243 60.855ZM81.4978 67.2195H78.9038C79.2358 66.6444 79.7483 66.195 80.3617 65.9409C80.9752 65.6868 81.6553 65.6422 82.2967 65.8141C82.9381 65.9859 83.5048 66.3646 83.909 66.8914C84.3133 67.4182 84.5324 68.0636 84.5324 68.7276C84.5324 69.3916 84.3133 70.0371 83.909 70.5639C83.5048 71.0906 82.9381 71.4693 82.2967 71.6412C81.6553 71.813 80.9752 71.7685 80.3617 71.5144C79.7483 71.2602 79.2358 70.8108 78.9038 70.2358H81.4978C81.8978 70.2358 82.2814 70.0769 82.5643 69.7941C82.8471 69.5112 83.006 69.1276 83.006 68.7276C83.006 68.3276 82.8471 67.944 82.5643 67.6612C82.2814 67.3783 81.8978 67.2195 81.4978 67.2195ZM75.3747 67.2195L75.9025 66.4804C75.8114 66.7217 75.7358 66.9685 75.6763 67.2195H75.3747ZM81.4978 77.7766C79.361 77.7745 77.2938 77.0161 75.6624 75.636C74.031 74.2558 72.9407 72.3428 72.5846 70.2358H75.6763C76.0066 71.5079 76.7433 72.6374 77.7744 73.4525C78.8055 74.2675 80.0746 74.7235 81.3887 74.7511C82.7027 74.7787 83.9898 74.3764 85.0543 73.6054C86.1187 72.8344 86.9022 71.7369 87.2857 70.4797C87.6691 69.2225 87.6315 67.8745 87.1785 66.6407C86.7255 65.4069 85.882 64.3548 84.7762 63.6443C83.6705 62.9339 82.3629 62.604 81.0525 62.7049C79.742 62.8057 78.5003 63.3318 77.5163 64.2031L80.7287 59.6786C80.9851 59.6786 81.2415 59.6786 81.4978 59.6786C83.8978 59.6786 86.1994 60.632 87.8965 62.329C89.5935 64.026 90.5469 66.3277 90.5469 68.7276C90.5469 71.1276 89.5935 73.4292 87.8965 75.1262C86.1994 76.8233 83.8978 77.7766 81.4978 77.7766Z" fill="#FEBC30"/>
<path d="M21.1714 26.499C21.4709 26.5008 21.7642 26.4133 22.0139 26.2477C22.2635 26.0821 22.4582 25.8459 22.573 25.5692C22.6879 25.2926 22.7178 24.988 22.6589 24.6942C22.5999 24.4005 22.4549 24.131 22.2422 23.9201L18.155 19.848V11.4173C18.155 11.0174 17.9961 10.6337 17.7133 10.3509C17.4305 10.0681 17.0469 9.90918 16.6469 9.90918C16.2469 9.90918 15.8633 10.0681 15.5804 10.3509C15.2976 10.6337 15.1387 11.0174 15.1387 11.4173V20.4664C15.1375 20.6649 15.1756 20.8616 15.2506 21.0454C15.3257 21.2291 15.4363 21.3962 15.5761 21.5372L20.1006 26.0617C20.2415 26.2015 20.4086 26.312 20.5924 26.3871C20.7761 26.4621 20.9729 26.5002 21.1714 26.499Z" fill="#222222"/>
</svg>
