<svg width="20" height="20" viewBox="0 0 20 20" fill="none" xmlns="http://www.w3.org/2000/svg">
<path d="M1.95605 15.3906C1.79426 15.3906 1.66309 15.2595 1.66309 15.0977V14.6289C1.66309 14.4671 1.79426 14.3359 1.95605 14.3359C2.11785 14.3359 2.24902 14.4671 2.24902 14.6289V15.0977C2.24902 15.2595 2.11785 15.3906 1.95605 15.3906Z" fill="#010101"/>
<path d="M6.83496 15.3906C6.67316 15.3906 6.54199 15.2595 6.54199 15.0977V14.6289C6.54199 14.4671 6.67316 14.3359 6.83496 14.3359C6.99676 14.3359 7.12793 14.4671 7.12793 14.6289V15.0977C7.12793 15.2595 6.99676 15.3906 6.83496 15.3906Z" fill="#010101"/>
<path d="M4.39511 15.67C4.06394 15.67 3.74901 15.5265 3.53108 15.2764C3.42479 15.1545 3.43749 14.9694 3.55948 14.8631C3.68143 14.7568 3.86651 14.7695 3.97284 14.8916C4.07944 15.0139 4.23335 15.0841 4.39511 15.0841C4.55686 15.0841 4.71073 15.0139 4.81737 14.8916C4.92366 14.7695 5.1087 14.7568 5.23073 14.8631C5.35272 14.9694 5.36542 15.1545 5.25913 15.2764C5.04116 15.5265 4.72628 15.67 4.39511 15.67Z" fill="#010101"/>
<path d="M19.0235 15.9219H17.0008C16.9085 15.7505 16.7579 15.6145 16.5703 15.5397C16.4895 15.5078 16.4315 15.438 16.4143 15.3528C16.414 15.3513 16.4138 15.3497 16.4135 15.3482C16.3503 15.0074 16.0792 14.7365 15.7388 14.674C15.7374 14.6737 15.736 14.6735 15.7346 14.6732C15.6515 14.6565 15.5832 14.6007 15.5501 14.5229C15.5493 14.5206 15.5484 14.5184 15.5475 14.5162C15.4196 14.1949 15.1019 13.9835 14.7567 13.9859H14.7508C14.6636 13.9859 14.5837 13.9426 14.5364 13.8691C14.3492 13.5803 13.9986 13.4334 13.6622 13.5021C13.6594 13.5026 13.6566 13.5032 13.6538 13.5038C13.5691 13.522 13.4784 13.4945 13.4174 13.432C13.4167 13.4313 13.416 13.4305 13.4152 13.4298C13.2581 13.2693 13.0395 13.1773 12.8148 13.1773C12.6976 13.1773 12.5845 13.2009 12.4812 13.2466C12.4021 13.2807 12.3126 13.273 12.2404 13.2261C12.2384 13.2247 12.2364 13.2233 12.2344 13.222C11.9496 13.0259 11.5666 13.0258 11.2813 13.2218C11.2792 13.2232 11.2772 13.2246 11.2751 13.2262C11.2045 13.2721 11.1094 13.2788 11.035 13.2469C10.7176 13.1091 10.3426 13.1825 10.1005 13.4296C10.0996 13.4304 10.0987 13.4314 10.0978 13.4323C10.0372 13.4945 9.94662 13.522 9.86162 13.5037C9.85916 13.5032 9.85666 13.5027 9.85419 13.5022C9.79802 13.4906 9.74115 13.4847 9.68509 13.4847C9.399 13.4847 9.13517 13.6285 8.97931 13.8694C8.93212 13.9423 8.85209 13.9859 8.76517 13.9859H8.75923C8.67849 13.985 8.59912 13.996 8.52326 14.0175L8.67873 12.3594C9.10474 12.4514 9.54677 12.5 9.99994 12.5C12.446 12.5 14.6806 11.0604 15.6929 8.83246C15.7598 8.68516 15.6946 8.51145 15.5473 8.44453C15.4 8.37758 15.2263 8.44273 15.1594 8.59008C14.242 10.6094 12.2169 11.9141 9.99998 11.9141C6.87681 11.9141 4.33587 9.37316 4.33587 6.25C4.33587 3.12684 6.87677 0.585938 9.99998 0.585938C13.1232 0.585938 15.6641 3.12684 15.6641 6.25C15.6641 6.62176 15.628 6.9927 15.5567 7.3525C15.5253 7.51121 15.6285 7.66535 15.7872 7.69676C15.946 7.7284 16.1001 7.62496 16.1315 7.46625C16.2101 7.06906 16.25 6.65984 16.25 6.25C16.25 2.80371 13.4462 0 9.99998 0C6.55373 0 3.74994 2.80371 3.74994 6.25C3.74994 7.6734 4.22826 8.98715 5.03255 10.0391H3.58388C3.42209 10.0391 3.29091 10.1702 3.29091 10.332C3.29091 10.4939 3.42209 10.625 3.58388 10.625H5.54068C6.24591 11.3437 7.12298 11.8932 8.10459 12.2063L8.06416 12.6375C6.48205 13.2562 5.27345 12.9773 4.10345 12.7073C3.0649 12.4675 1.99404 12.2204 0.724195 12.6112L0.588023 11.159C0.575015 11.0205 0.619507 10.8875 0.713257 10.7846C0.806929 10.6817 0.935054 10.625 1.07408 10.625H2.21666C2.37845 10.625 2.50962 10.4939 2.50962 10.3321C2.50962 10.1702 2.37845 10.0391 2.21666 10.0391H1.07408C0.772554 10.0391 0.483101 10.167 0.280015 10.39C0.076851 10.6131 -0.0235006 10.9133 0.00466348 11.2137L0.703882 18.672C0.775093 19.4291 1.40209 20 2.1624 20H6.62845C6.72037 20 6.81037 19.9916 6.89763 19.9756C6.98533 19.9918 7.07478 20 7.16443 20H16.3512C16.8757 20 17.3631 19.7171 17.6231 19.2618L18.4157 17.875H19.0235C19.2837 17.875 19.5288 17.7736 19.7138 17.5892C19.8984 17.4046 20 17.1593 20 16.8984C20 16.3599 19.5619 15.9219 19.0235 15.9219ZM8.5122 14.7339C8.5131 14.7316 8.514 14.7293 8.51486 14.727C8.55517 14.6322 8.64642 14.5718 8.7497 14.5718C8.7522 14.5718 8.75478 14.5719 8.75736 14.5719H8.76517C9.05173 14.5719 9.31576 14.4282 9.4713 14.1877C9.51869 14.1144 9.59861 14.0707 9.68509 14.0707C9.70216 14.0707 9.71994 14.0727 9.73794 14.0766C9.74084 14.0772 9.74376 14.0778 9.74673 14.0783C10.0277 14.1358 10.3142 14.0483 10.5152 13.8436C10.5162 13.8425 10.5173 13.8415 10.5183 13.8404C10.5915 13.7651 10.7054 13.7425 10.8026 13.7848C10.9081 13.8301 11.0202 13.8531 11.1359 13.8531C11.3072 13.8531 11.472 13.802 11.6124 13.7054C11.6144 13.7041 11.6164 13.7027 11.6184 13.7012C11.7026 13.6465 11.8128 13.6464 11.8968 13.701C11.899 13.7025 11.9011 13.7041 11.9034 13.7056C12.1433 13.8703 12.4461 13.8998 12.7156 13.7836C12.7462 13.7701 12.7796 13.7633 12.8148 13.7633C12.8831 13.7633 12.9496 13.7914 12.9972 13.8405C12.9982 13.8414 12.9992 13.8425 13.0003 13.8436C13.2017 14.0483 13.4882 14.1359 13.7688 14.0784C13.7715 14.0779 13.7742 14.0773 13.777 14.0768C13.8797 14.0546 13.9874 14.0994 14.0442 14.1871C14.1993 14.428 14.4634 14.5719 14.7508 14.5719H14.7586C14.7599 14.5719 14.7613 14.5719 14.7626 14.5719C14.8655 14.5707 14.9604 14.6327 15.0008 14.7272C15.0015 14.7292 15.0023 14.7311 15.0031 14.733C15.1105 15.0039 15.3457 15.1973 15.6323 15.2502C15.6339 15.2505 15.6355 15.2508 15.6372 15.2511C15.7369 15.2711 15.8163 15.3507 15.8365 15.4509C15.8368 15.4523 15.837 15.4538 15.8373 15.4553C15.8713 15.6386 15.9625 15.8007 16.0944 15.9218H8.34474L8.44345 14.869C8.47025 14.8264 8.4933 14.7811 8.5122 14.7339ZM6.62841 19.4141H2.1624C1.70623 19.4141 1.33002 19.0714 1.28732 18.6172L0.780289 13.2089C1.95138 12.8118 2.93435 13.0387 3.97173 13.2782C4.63599 13.4315 5.34763 13.5958 6.14779 13.5958C6.71677 13.5957 7.33056 13.5127 8.00369 13.2834L7.50365 18.6171C7.46084 19.0714 7.08459 19.4141 6.62841 19.4141ZM19.2999 17.1745C19.2258 17.2484 19.1276 17.2891 19.0235 17.2891H12.1754C12.0136 17.2891 11.8824 17.4202 11.8824 17.582C11.8824 17.7439 12.0136 17.875 12.1754 17.875H17.7408L17.1144 18.9711C16.9583 19.2444 16.6659 19.4141 16.3511 19.4141H7.80271C7.95888 19.2049 8.06068 18.9511 8.08693 18.6719L8.16166 17.875H10.8082C10.97 17.875 11.1011 17.7439 11.1011 17.5821C11.1011 17.4202 10.97 17.2891 10.8082 17.2891H8.21658L8.28982 16.5079H19.0235C19.2388 16.5079 19.4141 16.6831 19.4141 16.8985C19.4141 17.0028 19.3734 17.101 19.2999 17.1745Z" fill="#010101"/>
<path d="M9.99996 1.38281C7.31621 1.38281 5.13281 3.56621 5.13281 6.24996C5.13281 8.93371 7.31621 11.1171 9.99996 11.1171C12.6837 11.1171 14.8671 8.93371 14.8671 6.24996C14.8671 3.56621 12.6837 1.38281 9.99996 1.38281ZM13.8754 6.54293H14.2712C14.206 7.50332 13.8226 8.37781 13.2259 9.0616L12.9478 8.78344C12.8334 8.66906 12.6479 8.66906 12.5335 8.78344C12.4191 8.89789 12.4191 9.08336 12.5335 9.19777L12.8116 9.47594C12.1279 10.0727 11.2534 10.456 10.293 10.5212V10.1254C10.293 9.96352 10.1618 9.83238 10 9.83238C9.8382 9.83238 9.70703 9.96352 9.70703 10.1254V10.5212C8.74664 10.456 7.87211 10.0726 7.18836 9.4759L7.46652 9.19773C7.58094 9.08328 7.58094 8.89781 7.46652 8.7834C7.35211 8.66902 7.1666 8.66902 7.05223 8.7834L6.77406 9.06156C6.17734 8.37781 5.79398 7.50332 5.72879 6.54289H6.12465C6.28645 6.54289 6.41762 6.41176 6.41762 6.24992C6.41762 6.08809 6.28645 5.95695 6.12465 5.95695H5.72879C5.79398 4.99656 6.17738 4.12207 6.77406 3.43828L7.05223 3.71645C7.10941 3.77363 7.18441 3.80223 7.25938 3.80223C7.33434 3.80223 7.40934 3.77363 7.46652 3.71645C7.58094 3.60199 7.58094 3.41652 7.46652 3.30211L7.18836 3.02395C7.87211 2.42723 8.7466 2.04387 9.70703 1.97863V2.37457C9.70703 2.53641 9.8382 2.66754 10 2.66754C10.1618 2.66754 10.293 2.53641 10.293 2.37457V1.97871C11.2534 2.04391 12.1279 2.4273 12.8116 3.02402L12.5335 3.30219C12.4191 3.41664 12.4191 3.60211 12.5335 3.71652C12.5907 3.77371 12.6657 3.8023 12.7406 3.8023C12.8156 3.8023 12.8906 3.77371 12.9478 3.71652L13.2259 3.43836C13.8227 4.12211 14.206 4.9966 14.2712 5.95703H13.8754C13.7136 5.95703 13.5824 6.08816 13.5824 6.25C13.5824 6.41184 13.7136 6.54293 13.8754 6.54293Z" fill="#010101"/>
<path d="M11.3843 4.45094L10.293 5.54227V3.5459C10.293 3.38406 10.1618 3.25293 10 3.25293C9.8382 3.25293 9.70703 3.38406 9.70703 3.5459V6.24957C9.70703 6.41141 9.8382 6.54254 10 6.54254C10.0809 6.54254 10.1541 6.50977 10.2071 6.45676L11.7986 4.86531C11.913 4.75086 11.913 4.56539 11.7986 4.45098C11.6842 4.33656 11.4987 4.33656 11.3843 4.45094Z" fill="#010101"/>
</svg>
