<svg width="22" height="20" viewBox="0 0 22 20" fill="none" xmlns="http://www.w3.org/2000/svg">
<path d="M20.8477 10.2209H20.0917C20.0209 9.0715 19.741 7.96215 19.2565 6.91926C19.1826 6.7596 18.9932 6.69048 18.8335 6.76442C18.6738 6.83852 18.6046 7.02792 18.6787 7.18759C19.1238 8.14607 19.3834 9.16504 19.4532 10.2209H4.86139C4.68545 10.2209 4.54289 10.3634 4.54289 10.5394C4.54289 10.7153 4.68545 10.8579 4.86139 10.8579H20.8477C21.0088 10.8579 21.1398 10.989 21.1398 11.1501V11.5389C21.1398 11.7001 21.0088 11.8312 20.8477 11.8312H0.929247C0.768087 11.8312 0.637165 11.7001 0.637165 11.5389V11.1501C0.637165 10.989 0.768087 10.8579 0.929247 10.8579H3.37656C3.55251 10.8579 3.69522 10.7153 3.69522 10.5394C3.69522 10.3634 3.55251 10.2209 3.37656 10.2209H2.3237C2.46409 8.1047 3.37157 6.13606 4.9011 4.64707C6.37514 3.21224 8.27982 2.36756 10.3154 2.23365C10.3166 2.23365 10.3178 2.23382 10.3189 2.23365C10.4056 2.228 10.4914 2.22368 10.5761 2.22052C10.5931 2.22003 10.6098 2.21919 10.6268 2.2187C10.657 2.2177 10.6871 2.21703 10.7168 2.21637C10.774 2.21537 10.8311 2.21438 10.8885 2.21438C10.9646 2.21438 11.0406 2.21587 11.1166 2.21787C11.139 2.21853 11.1613 2.21919 11.1839 2.21986C11.2423 2.22185 11.3007 2.22484 11.359 2.228C11.3899 2.22966 11.4208 2.23132 11.4519 2.23332C14.0671 2.40511 16.4732 3.76517 17.9705 5.94599C18.0701 6.09086 18.2684 6.12791 18.4135 6.02823C18.5585 5.92871 18.5954 5.73033 18.4957 5.58529C17.0224 3.4392 14.7291 2.03361 12.1944 1.67108C12.3532 1.42452 12.4424 1.13427 12.4424 0.830225C12.4424 0.657102 12.3652 0.337938 11.8478 0.147537C11.5894 0.0525017 11.2487 0 10.8885 0C10.5281 0 10.1873 0.0525017 9.92897 0.147537C9.4116 0.337938 9.33451 0.657102 9.33451 0.830225C9.33451 1.13344 9.4234 1.4232 9.58123 1.66926C7.65678 1.94157 5.87189 2.81283 4.45667 4.1905C2.80336 5.79995 1.82659 7.93125 1.68521 10.2207H0.929247C0.416857 10.2209 0 10.6377 0 11.1501V11.5389C0 12.0515 0.416857 12.4683 0.929247 12.4683H4.36097C4.18967 12.5856 4.02552 12.7172 3.87184 12.8633L3.86552 12.8692C3.85572 12.8784 3.84642 12.8882 3.83794 12.8986L2.32553 14.7352C2.13579 14.6148 1.91116 14.5709 1.68953 14.6134C1.45842 14.6576 1.25855 14.7892 1.12663 14.9839L0.531829 15.861C0.25985 16.2622 0.364854 16.8104 0.765761 17.0827L4.83581 19.8476C4.98334 19.9478 5.15381 20 5.32843 20C5.38392 20 5.43991 19.9947 5.49573 19.9841C5.72668 19.9399 5.92655 19.8083 6.05847 19.6135L6.65326 18.7365C6.92524 18.3352 6.82041 17.7871 6.4195 17.5148L6.39624 17.499C6.67952 17.1775 7.05716 16.9471 7.46804 16.8521C8.33382 16.6515 9.35262 16.7806 10.0436 16.8951C10.8984 17.0366 11.7963 16.9883 12.6401 16.7552L13.8131 16.431C14.5945 16.2151 15.3136 15.8514 15.9506 15.3499C15.9554 15.3461 15.96 15.3423 15.9647 15.3381L17.9785 13.5546C18.3218 13.2919 18.3965 12.837 18.2781 12.4683H20.8477C21.3601 12.4683 21.7769 12.0515 21.7769 11.5391V11.1501C21.7769 10.6377 21.3601 10.2209 20.8477 10.2209ZM10.8885 0.637165C11.4249 0.637165 11.7464 0.769915 11.8052 0.843683C11.8009 1.1459 11.6481 1.42469 11.3994 1.59183C11.3367 1.58851 11.2749 1.58585 11.2133 1.58353C11.1925 1.58286 11.1717 1.58186 11.151 1.58137C11.0621 1.57871 10.9744 1.57738 10.8885 1.57738C10.8275 1.57738 10.7653 1.57821 10.7027 1.57954C10.6725 1.58004 10.6421 1.58087 10.6117 1.58186C10.5754 1.58303 10.5389 1.58419 10.5023 1.58569C10.4606 1.58751 10.4189 1.58934 10.3774 1.59167C10.1287 1.42452 9.97599 1.14573 9.97167 0.843683C10.0305 0.769915 10.352 0.637165 10.8885 0.637165ZM13.1729 12.622C13.1492 12.5682 13.1208 12.517 13.0887 12.4683H16.1443L14.8231 13.3427L12.9398 13.8875L12.8759 13.889C13.2384 13.5868 13.3707 13.0708 13.1729 12.622ZM9.71847 12.4683L9.25875 12.5642L8.90336 12.4683H9.71847ZM6.12592 18.3789L5.53129 19.256C5.4949 19.3098 5.43974 19.3461 5.37594 19.3584C5.31231 19.3705 5.24751 19.3572 5.19385 19.3206L1.1238 16.5557C1.01315 16.4806 0.984241 16.3294 1.05934 16.2187L1.65414 15.3415C1.69052 15.2878 1.74552 15.2514 1.80932 15.2393C1.82477 15.2363 1.84022 15.2348 1.8555 15.2348C1.90369 15.2348 1.9507 15.2493 1.99141 15.277L2.21122 15.4262C2.21122 15.4264 2.21139 15.4264 2.21139 15.4264L6.06146 18.0418C6.17211 18.1169 6.20102 18.2683 6.12592 18.3789ZM17.5876 13.0515C17.5799 13.057 17.5726 13.063 17.5655 13.0693L15.5495 14.855C14.9811 15.3008 14.3398 15.6244 13.6435 15.8168L12.4705 16.141C11.7152 16.3498 10.9121 16.3932 10.148 16.2666C9.40329 16.1433 8.30076 16.0052 7.32432 16.2313C6.75877 16.3623 6.24239 16.6872 5.86674 17.1392L2.8557 15.0937L4.3171 13.319C4.86987 12.7971 5.57083 12.4873 6.24206 12.4683H6.25502C6.46319 12.4648 6.6835 12.5261 6.9166 12.5914C6.96346 12.6044 7.01014 12.6175 7.057 12.6302L9.16637 13.1992C9.21472 13.2122 9.26539 13.2137 9.3144 13.2034L12.0771 12.6273C12.2023 12.6014 12.3339 12.6268 12.4381 12.6974C12.5054 12.7431 12.5579 12.8059 12.5899 12.8789C12.6846 13.0937 12.5954 13.3459 12.3838 13.4549L11.4412 13.954C11.3108 14.0231 11.245 14.1726 11.2821 14.3155C11.3193 14.4586 11.4494 14.5559 11.5972 14.5539L12.9953 14.5237C13.0231 14.523 13.0505 14.5189 13.0769 14.5112L15.0469 13.9414C15.078 13.9324 15.1074 13.9188 15.1343 13.901L17.1217 12.5855C17.2885 12.4825 17.5105 12.3977 17.6286 12.572C17.7207 12.7076 17.7228 12.9516 17.5876 13.0515Z" fill="#010101"/>
</svg>
