<svg width="21" height="20" viewBox="0 0 21 20" fill="none" xmlns="http://www.w3.org/2000/svg">
<path d="M11.6333 2.52527C12.9298 2.72606 14.1324 3.18223 15.111 3.84429C16.0575 4.4846 16.7533 5.28684 17.1234 6.16449C17.187 6.31547 17.3333 6.40615 17.4874 6.40615C17.5386 6.40615 17.5905 6.39613 17.6407 6.375C17.8416 6.29018 17.9357 6.0587 17.851 5.85775C17.4214 4.83884 16.6268 3.91646 15.5535 3.19025C14.4789 2.46327 13.1651 1.96345 11.754 1.74493C11.5389 1.71162 11.3369 1.8592 11.3036 2.0748C11.2701 2.29009 11.4177 2.4918 11.6333 2.52527Z" fill="black"/>
<path d="M3.96187 5.4867C4.02433 5.6366 4.18333 5.73761 4.34556 5.7299C4.5058 5.72219 4.65292 5.60884 4.70165 5.45601C4.751 5.30133 4.69579 5.12074 4.56625 5.02219C4.43223 4.92041 4.2353 4.91671 4.09774 5.01387C3.95138 5.11719 3.89417 5.32153 3.96187 5.4867Z" fill="black"/>
<path d="M5.86357 4.01623C5.92665 4.16783 6.08842 4.26992 6.25266 4.25943C6.41105 4.2491 6.55508 4.13622 6.60366 3.98524C6.65317 3.83164 6.59765 3.65274 6.47026 3.55374C6.33563 3.44933 6.1353 3.44501 5.99713 3.5451C5.85339 3.6492 5.7951 3.85199 5.86357 4.01623Z" fill="black"/>
<path d="M7.90716 5.4867C7.96961 5.6366 8.12877 5.73761 8.291 5.7299C8.45124 5.72219 8.59867 5.60884 8.6474 5.45601C8.69675 5.30117 8.64123 5.12058 8.51153 5.02219C8.37752 4.92041 8.18074 4.91671 8.04302 5.01387C7.89682 5.11719 7.83945 5.32153 7.90716 5.4867Z" fill="black"/>
<path d="M20.2136 12.5126C20.2136 11.6433 19.655 10.9024 18.8782 10.6287V9.64075C19.0031 9.59464 19.1234 9.53388 19.2365 9.458C19.686 9.15589 19.9439 8.67905 19.9439 8.14931C19.9439 7.81805 19.8415 7.50453 19.6512 7.24082C19.7474 7.01273 19.7764 6.75951 19.7297 6.50998C19.3916 4.70194 18.2307 3.04687 16.4607 1.84938C14.6979 0.656812 12.4413 0 10.1068 0C7.77225 0 5.51574 0.656812 3.75288 1.84938C1.98293 3.04672 0.821979 4.70194 0.483934 6.50998C0.425332 6.82289 0.485631 7.1415 0.648793 7.40907C0.525882 7.63454 0.461881 7.8856 0.461881 8.14931C0.461881 8.67905 0.719733 9.1562 1.16943 9.45816C1.2231 9.49424 1.27877 9.52647 1.33537 9.55593V10.6287C0.558576 10.9024 0 11.6433 0 12.5126V12.5928C0 13.1686 0.24536 13.688 0.63661 14.0529C0.522489 14.2725 0.461881 14.5168 0.461881 14.7683C0.461881 15.1636 0.605612 15.5292 0.86516 15.815V17.2397C0.86516 18.7616 2.10337 20 3.6255 20H16.5881C18.1102 20 19.3484 18.7616 19.3484 17.2397V15.994C19.7283 15.6913 19.9439 15.252 19.9439 14.7682C19.9439 14.4648 19.8584 14.1777 19.6988 13.9294C20.0185 13.5753 20.2136 13.1065 20.2136 12.5928V12.5126ZM19.424 12.5126V12.5928C19.424 13.0004 19.2207 13.3612 18.9105 13.5801C18.7083 13.7226 18.4638 13.8003 18.2165 13.8003H12.0945L14.6121 11.3051H18.2163C18.8822 11.3051 19.424 11.8468 19.424 12.5126ZM5.98379 11.3051L6.0464 11.3678L6.45138 11.7727L5.60365 12.6205L4.28817 11.3051H5.98379ZM9.71138 13.916L7.28924 11.494C7.28924 11.4938 7.28909 11.4937 7.28893 11.4935L7.10048 11.3051H13.4888L10.8503 13.9144C10.8501 13.9146 10.85 13.9147 10.8498 13.915C10.8495 13.9153 10.849 13.9157 10.8487 13.916L10.28 14.4847L9.71138 13.916ZM1.25996 6.65495C1.55898 5.05602 2.60149 3.58155 4.19533 2.50326C5.82896 1.39814 7.92832 0.789593 10.1068 0.789593C12.2853 0.789593 14.3846 1.39814 16.0183 2.50326C17.6121 3.58155 18.6545 5.05602 18.9536 6.65495C19.009 6.95151 18.7721 7.2348 18.4711 7.2348H1.7425C1.44101 7.2348 1.20459 6.95151 1.25996 6.65495ZM1.28062 7.9385C1.42728 7.99525 1.58536 8.0244 1.7425 8.0244H18.4711C18.689 8.0244 18.9081 7.96795 19.0981 7.86108C19.1353 7.95238 19.1543 8.05061 19.1543 8.14916C19.1543 8.41148 19.0238 8.64959 18.7962 8.80242C18.5635 8.9588 18.2671 8.99627 18.0009 8.91207C17.8693 8.87043 17.7452 8.81677 17.6095 8.78777C17.4627 8.75631 17.3125 8.74243 17.1624 8.74243C16.4572 8.74243 16.0787 9.00954 15.7748 9.22405C15.508 9.41251 15.2973 9.56133 14.8427 9.56133C14.388 9.56133 14.1774 9.41251 13.9106 9.22421C13.6066 9.00938 13.2283 8.74243 12.5229 8.74243C11.8177 8.74243 11.4394 9.00954 11.1354 9.22421C10.8686 9.41251 10.658 9.56133 10.2033 9.56133C9.7487 9.56133 9.53789 9.41251 9.27109 9.22405C8.96713 9.00938 8.58883 8.74243 7.8836 8.74243C7.17836 8.74243 6.79991 9.00954 6.49595 9.22405C6.22915 9.41251 6.01834 9.56133 5.56386 9.56133C5.10907 9.56133 4.89841 9.41251 4.63146 9.22405C4.3275 9.00938 3.9492 8.74243 3.24381 8.74243C2.96483 8.74243 2.7133 8.78978 2.47473 8.88709C2.19297 9.00214 1.86326 8.97299 1.60972 8.80258C1.3821 8.64975 1.25163 8.41164 1.25163 8.14931C1.25147 8.07668 1.26134 8.00605 1.28062 7.9385ZM2.20346 9.74423C2.41057 9.73421 2.60489 9.68193 2.79766 9.60852C2.98997 9.53511 3.1997 9.52061 3.40343 9.53881C3.75196 9.56981 3.94257 9.70444 4.17605 9.86915C4.48002 10.0838 4.85831 10.3509 5.5637 10.3509C6.26894 10.3509 6.64724 10.0838 6.9512 9.86915C7.21799 9.68085 7.42881 9.53203 7.88344 9.53203C8.33808 9.53203 8.54874 9.68085 8.81553 9.86915C9.1195 10.0838 9.49795 10.3509 10.2032 10.3509C10.9084 10.3509 11.2867 10.0838 11.5907 9.86915C11.8575 9.68085 12.0683 9.53203 12.5228 9.53203C12.9774 9.53203 13.1882 9.68085 13.455 9.86915C13.759 10.0838 14.1373 10.3509 14.8425 10.3509C15.5477 10.3509 15.926 10.0838 16.23 9.86915C16.497 9.68085 16.7076 9.53203 17.1622 9.53203C17.3236 9.53203 17.4819 9.55886 17.6323 9.61793C17.779 9.6756 17.9316 9.71709 18.0885 9.73544V10.5156H14.4497C14.4496 10.5156 14.4496 10.5156 14.4494 10.5156H14.4493H6.1485C6.14819 10.5156 6.14773 10.5156 6.14742 10.5156C6.14695 10.5156 6.14649 10.5156 6.14618 10.5156H2.12496V9.74639C2.15118 9.74623 2.17724 9.74546 2.20346 9.74423ZM0.789593 12.5126C0.789593 11.8468 1.33136 11.3051 1.99712 11.3051H3.17164L5.32451 13.4581C5.39854 13.5321 5.49893 13.5736 5.60365 13.5736C5.70836 13.5736 5.80876 13.5321 5.88278 13.4581L7.0098 12.3311L8.47903 13.8003H1.99712C1.78846 13.8003 1.58104 13.7451 1.39999 13.6416C1.03572 13.4336 0.789593 13.0416 0.789593 12.5928V12.5126ZM1.31671 14.4704C1.534 14.5492 1.76594 14.5899 1.99712 14.5899H9.26862L10.0008 15.3221C10.1523 15.4737 10.406 15.474 10.5579 15.3234L11.298 14.5899H18.2163C18.439 14.5899 18.6614 14.5521 18.8717 14.4793C18.9159 14.4641 18.9609 14.4486 19.0024 14.4274C19.0158 14.4204 19.0352 14.405 19.0511 14.4061C19.073 14.4076 19.0787 14.4355 19.0866 14.4531C19.1293 14.5473 19.1521 14.6505 19.154 14.754C19.1606 15.1264 18.8924 15.4381 18.5422 15.5396C18.3415 15.5979 18.1243 15.5849 17.9309 15.5059C17.6928 15.4086 17.4412 15.3613 17.1622 15.3613C16.457 15.3613 16.0787 15.6284 15.7748 15.8431C15.5078 16.0315 15.2971 16.1803 14.8425 16.1803C14.388 16.1803 14.1772 16.0315 13.9104 15.8431C13.6065 15.6284 13.2282 15.3613 12.5229 15.3613C11.8177 15.3613 11.4394 15.6284 11.1353 15.8431C10.8685 16.0315 10.6578 16.1803 10.2032 16.1803C9.74855 16.1803 9.53789 16.0315 9.27094 15.8431C8.96698 15.6284 8.58868 15.3613 7.88344 15.3613C7.17821 15.3613 6.79991 15.6284 6.49579 15.8431C6.229 16.0315 6.01834 16.1803 5.5637 16.1803C5.10892 16.1803 4.89826 16.0314 4.63146 15.8431C4.32734 15.6284 3.94905 15.3613 3.24366 15.3613C2.96468 15.3613 2.71315 15.4086 2.47473 15.5061C2.21703 15.6113 1.91661 15.5974 1.67341 15.4605C1.45828 15.3394 1.29805 15.1318 1.26042 14.8852C1.24916 14.8123 1.24854 14.7376 1.25826 14.6644C1.26104 14.6431 1.29728 14.4633 1.31671 14.4704ZM18.5588 17.2397C18.5588 18.3263 17.6747 19.2104 16.5881 19.2104H3.6255C2.53888 19.2104 1.65475 18.3263 1.65475 17.2397V16.3033C1.97892 16.3952 2.32884 16.3887 2.66226 16.2778C2.66904 16.2755 2.67583 16.2732 2.68246 16.271C2.71284 16.2604 2.74322 16.2494 2.77314 16.2371C2.91502 16.1791 3.06893 16.151 3.24366 16.151C3.69844 16.151 3.9091 16.2997 4.1759 16.4882C4.48002 16.7028 4.85831 16.9699 5.5637 16.9699C6.26894 16.9699 6.64724 16.7028 6.9512 16.4882C7.21799 16.2997 7.42881 16.151 7.88329 16.151C8.33792 16.151 8.54874 16.2997 8.81553 16.4882C9.1195 16.7028 9.49779 16.9699 10.2032 16.9699C10.9084 16.9699 11.2867 16.7028 11.5907 16.4882C11.8575 16.2997 12.0683 16.151 12.5228 16.151C12.9774 16.151 13.1882 16.2997 13.4549 16.4882C13.7588 16.7028 14.1373 16.9699 14.8425 16.9699C15.5477 16.9699 15.926 16.7028 16.23 16.4882C16.4968 16.2997 16.7076 16.151 17.1622 16.151C17.2799 16.151 17.3979 16.1641 17.5115 16.1958C17.6197 16.2258 17.7217 16.2733 17.8299 16.3039C18.0646 16.37 18.318 16.3841 18.5587 16.3449V17.2397H18.5588Z" fill="black"/>
<path d="M8.91924 4.01627C8.9817 4.16617 9.14085 4.26795 9.30325 4.25962C9.46348 4.25145 9.61045 4.13856 9.65933 3.98589C9.70899 3.83105 9.65332 3.65077 9.52393 3.55192C9.39022 3.44967 9.19298 3.44582 9.05557 3.54344C8.90984 3.64676 8.85031 3.8511 8.91924 4.01627Z" fill="black"/>
<path d="M10.7001 5.75622C10.7626 5.90628 10.9216 6.00714 11.0838 5.99943C11.2442 5.99172 11.3909 5.87821 11.4401 5.72569C11.4899 5.57101 11.434 5.39027 11.3045 5.29172C11.1705 5.18978 10.9736 5.18639 10.836 5.28339C10.6898 5.38672 10.6324 5.59106 10.7001 5.75622Z" fill="black"/>
<path d="M9.69225 2.21141C9.83274 2.30502 10.0303 2.29577 10.1609 2.18874C10.2886 2.08418 10.3397 1.89897 10.2807 1.74444C10.2234 1.59439 10.0713 1.48751 9.91016 1.48829C9.7507 1.48921 9.5991 1.59392 9.54266 1.74321C9.47958 1.91038 9.54405 2.11179 9.69225 2.21141Z" fill="black"/>
</svg>
