<svg width="18" height="20" viewBox="0 0 18 20" fill="none" xmlns="http://www.w3.org/2000/svg">
<path d="M2.59139 7.40715C2.65161 7.40715 2.71234 7.38865 2.76458 7.35033L3.14245 7.07328C3.46263 6.8385 3.70402 6.51726 3.8405 6.14428C4.25742 5.00467 5.14341 4.09432 6.27125 3.64662L6.75947 3.45281C7.03957 4.2733 7.81751 4.86522 8.73161 4.86522C9.64571 4.86522 10.4237 4.2733 10.7038 3.45281L11.192 3.64662C11.414 3.73476 11.6311 3.84315 11.8374 3.96887C11.8851 3.99793 11.9377 4.01173 11.9897 4.01173C12.0887 4.01173 12.1852 3.96168 12.2405 3.87103C12.3247 3.73272 12.2809 3.55226 12.1426 3.46795C11.9081 3.32506 11.6611 3.20177 11.4084 3.10142L10.8133 2.8652C10.8144 2.83739 10.8154 2.80951 10.8154 2.78143C10.8154 1.93479 10.3076 1.20499 9.58076 0.879209C9.65107 0.773667 9.73233 0.674303 9.82403 0.582604L9.90599 0.500642C10.0205 0.386105 10.0205 0.200399 9.90599 0.0859022C9.79145 -0.0286341 9.60575 -0.0286341 9.49125 0.0859022L9.40929 0.167865C9.24435 0.332806 9.10584 0.516948 8.99447 0.714815C8.90832 0.703905 8.82073 0.697649 8.73165 0.697649C7.58265 0.697649 6.64787 1.63243 6.64787 2.78143C6.64787 2.80951 6.64888 2.83735 6.64998 2.8652L6.05485 3.10142C4.7718 3.61072 3.76397 4.64631 3.28963 5.9427C3.19305 6.20669 3.0222 6.43404 2.79559 6.60023L2.41773 6.87733C2.28712 6.97309 2.25885 7.15665 2.35465 7.28726C2.41214 7.36562 2.50114 7.40715 2.59139 7.40715ZM8.73161 1.28421C8.74154 1.28421 8.75132 1.28476 8.76121 1.28496C8.70393 1.4971 8.6737 1.718 8.6737 1.94367V2.46727C8.6737 2.62924 8.80501 2.76055 8.96698 2.76055C9.12895 2.76055 9.26026 2.62924 9.26026 2.46727V1.94367C9.26026 1.76101 9.28599 1.58242 9.33487 1.41154C9.86075 1.64405 10.2288 2.17039 10.2288 2.78139C10.2288 3.60696 9.55718 4.27862 8.73161 4.27862C7.90604 4.27862 7.23439 3.60696 7.23439 2.78139C7.23443 1.95587 7.90608 1.28421 8.73161 1.28421Z" fill="#010101"/>
<path d="M17.5032 11.9086C17.5032 11.2263 17.1394 10.6143 16.5672 10.2845C16.7046 10.0625 16.8004 9.81118 16.8428 9.54038C16.9594 8.79596 16.6544 8.05673 16.0468 7.61114L14.6681 6.6001C14.4415 6.4339 14.2706 6.20659 14.1741 5.9426C13.9523 5.33633 13.6174 4.78863 13.1788 4.31477C13.0688 4.19589 12.8832 4.18874 12.7643 4.29874C12.6454 4.40874 12.6383 4.59432 12.7483 4.7132C13.1339 5.12978 13.4282 5.61123 13.6232 6.14418C13.7597 6.51716 14.0011 6.83836 14.3213 7.07314L15.6999 8.08414C16.1299 8.39956 16.3458 8.92277 16.2633 9.44962C16.1579 10.123 15.5869 10.6278 14.9056 10.6497L14.4468 10.6645C13.8596 10.6835 13.3996 11.1586 13.3996 11.746V14.5054C13.3996 14.8379 13.1291 15.1084 12.7967 15.1084C12.4643 15.1084 12.1938 14.8379 12.1938 14.5054V12.2136C12.1938 12.0189 12.1288 11.8263 12.0109 11.6714C11.8645 11.4789 11.6518 11.356 11.4119 11.3252C11.1725 11.2943 10.9361 11.3594 10.7462 11.5082C10.7337 11.518 10.7213 11.5279 10.709 11.5378C10.1508 11.9871 9.44867 12.2345 8.73205 12.2345C8.01543 12.2345 7.31339 11.9871 6.75514 11.5378C6.12693 11.0321 5.33706 10.7393 4.53101 10.7133L2.55851 10.6497C1.87728 10.6277 1.30624 10.123 1.20077 9.44958C1.11885 8.92656 1.33216 8.40538 1.75742 8.08954C1.88744 7.99295 1.91458 7.80924 1.81799 7.67922C1.72141 7.5492 1.5377 7.5221 1.40767 7.61864C0.806876 8.06494 0.505539 8.80127 0.621288 9.54038C0.664811 9.8183 0.7648 10.0756 0.908078 10.3018C0.352876 10.6363 0 11.2417 0 11.9086C0 12.6943 0.485518 13.3683 1.17207 13.6474L2.82813 18.7499C3.07082 19.4975 3.76194 19.9999 4.54802 19.9999H12.9162C13.7022 19.9999 14.3934 19.4975 14.636 18.7499L15.2756 16.7793C15.3256 16.6252 15.2412 16.4598 15.0872 16.4098C14.933 16.3598 14.7677 16.4442 14.7177 16.5982L14.0781 18.5688C13.9142 19.0739 13.4472 19.4133 12.9162 19.4133H12.1194L12.8124 15.6945C13.4611 15.6861 13.9862 15.1561 13.9862 14.5054V13.7851H15.6269C15.6282 13.7851 15.6295 13.785 15.6308 13.785L15.1043 15.4071C15.0543 15.5612 15.1387 15.7266 15.2927 15.7766C15.3228 15.7864 15.3533 15.791 15.3833 15.791C15.507 15.791 15.6219 15.7122 15.6622 15.5882L16.2864 13.665C16.9965 13.3975 17.5032 12.7113 17.5032 11.9086ZM0.586524 11.9086C0.586524 11.4151 0.867957 10.971 1.30108 10.7551C1.63815 11.0432 2.07026 11.2208 2.53962 11.236L4.51212 11.2996C5.19171 11.3216 5.85769 11.5684 6.38736 11.9948C7.04943 12.5277 7.88212 12.8212 8.73205 12.8212C9.58198 12.8212 10.4147 12.5277 11.0768 11.9948C11.0872 11.9864 11.0976 11.9781 11.1081 11.9699C11.1733 11.9187 11.2547 11.8965 11.3371 11.907C11.42 11.9177 11.4935 11.9602 11.5441 12.0267C11.5847 12.0801 11.6071 12.1465 11.6071 12.2137V13.1986H1.87642C1.16515 13.1985 0.586524 12.6199 0.586524 11.9086ZM7.87121 19.4133L7.47911 13.7851H9.98499L9.59289 19.4133H7.87121ZM5.94142 19.4133L4.89268 13.7851H6.89114L7.28324 19.4133H5.94142ZM3.386 18.5688L1.83305 13.784C1.84752 13.7843 1.86187 13.7851 1.87638 13.7851H4.29599L5.34473 19.4133H4.5479C4.0169 19.4133 3.54992 19.0739 3.386 18.5688ZM10.1809 19.4133L10.573 13.7851H11.6072V14.5054C11.6072 14.9608 11.8645 15.357 12.2413 15.5569L11.5226 19.4133H10.1809ZM15.6267 13.1985H13.9861V11.746C13.9861 11.477 14.1968 11.2594 14.4656 11.2508L14.9244 11.236C15.4005 11.2206 15.8383 11.0382 16.1775 10.7428C16.6253 10.9535 16.9166 11.4026 16.9166 11.9086C16.9167 12.6199 16.338 13.1985 15.6267 13.1985Z" fill="#010101"/>
<path d="M6.1287 6.5924C6.00477 6.48803 5.81977 6.50394 5.71544 6.62783C5.61111 6.75171 5.62695 6.93675 5.75087 7.04108L6.1208 7.35258C6.17582 7.39892 6.24288 7.42152 6.30955 7.42152C6.39308 7.42152 6.47602 7.38602 6.53405 7.31716C6.63838 7.19327 6.62254 7.00823 6.49862 6.9039L6.1287 6.5924Z" fill="#010101"/>
<path d="M8.47717 6.43818L8.25529 6.82758C8.17513 6.96832 8.22421 7.14742 8.36494 7.22758C8.41077 7.25366 8.46063 7.2661 8.50986 7.2661C8.61181 7.2661 8.71086 7.21288 8.76494 7.11793L8.98682 6.72853C9.06698 6.5878 9.0179 6.4087 8.87717 6.32854C8.73643 6.24837 8.55741 6.29745 8.47717 6.43818Z" fill="#010101"/>
<path d="M11.3333 6.05918C11.4953 6.05918 11.6266 5.92787 11.6266 5.7659V5.43488C11.6266 5.27291 11.4953 5.1416 11.3333 5.1416C11.1714 5.1416 11.04 5.27291 11.04 5.43488V5.7659C11.04 5.92787 11.1714 6.05918 11.3333 6.05918Z" fill="#010101"/>
<path d="M11.0063 7.1662L10.6558 6.7768C10.5475 6.65636 10.362 6.64663 10.2416 6.75498C10.1212 6.86334 10.1115 7.04877 10.2198 7.16918L10.5703 7.55858C10.6282 7.62294 10.7081 7.65567 10.7884 7.65567C10.8583 7.65567 10.9284 7.63084 10.9845 7.5804C11.1049 7.47204 11.1146 7.28661 11.0063 7.1662Z" fill="#010101"/>
<path d="M10.5222 8.94141H9.97004C9.80807 8.94141 9.67676 9.07272 9.67676 9.23469C9.67676 9.39666 9.80807 9.52797 9.97004 9.52797H10.5222C10.6841 9.52797 10.8154 9.39666 10.8154 9.23469C10.8154 9.07272 10.6841 8.94141 10.5222 8.94141Z" fill="#010101"/>
<path d="M7.36205 8.53077L7.14557 8.82284C7.04914 8.95298 7.0764 9.13665 7.20654 9.23312C7.25905 9.27203 7.32025 9.2908 7.38094 9.2908C7.47065 9.2908 7.55926 9.24978 7.61678 9.17216L7.83326 8.88009C7.92969 8.74995 7.90244 8.56628 7.7723 8.46981C7.64216 8.37334 7.45853 8.40063 7.36205 8.53077Z" fill="#010101"/>
<path d="M4.68999 8.35609C4.55089 8.27295 4.37086 8.3182 4.28772 8.45721C4.20459 8.59623 4.24987 8.7763 4.38885 8.85948L4.73324 9.06548C4.78043 9.09367 4.83229 9.10709 4.88351 9.10709C4.98327 9.10709 5.08056 9.05617 5.1355 8.96432C5.21864 8.8253 5.17335 8.64523 5.03438 8.56205L4.68999 8.35609Z" fill="#010101"/>
<path d="M12.5152 8.65016C12.5603 8.67523 12.6091 8.68712 12.6573 8.68712C12.7604 8.68712 12.8603 8.63268 12.914 8.53621L13.1087 8.18576C13.1873 8.04416 13.1363 7.86561 12.9947 7.78698C12.8532 7.7083 12.6746 7.75929 12.5959 7.90093L12.4012 8.25138C12.3225 8.39293 12.3736 8.57148 12.5152 8.65016Z" fill="#010101"/>
</svg>
